<svg width="372" height="300" viewBox="0 0 372 300" fill="none" xmlns="http://www.w3.org/2000/svg">
<path opacity="0.151902" fill-rule="evenodd" clip-rule="evenodd" d="M367.738 156.905C367.697 158.617 367.611 160.333 367.525 162.062C367.175 168.795 366.556 175.631 365.728 182.674C365.516 184.577 365.277 186.463 365.038 188.377C363.957 196.992 360.769 205.234 355.865 213.072C326.855 259.391 237.1 291.443 159.133 298.718C158.783 298.751 158.444 298.652 158.093 298.685C156.773 298.809 155.483 298.85 154.159 298.85C153.175 298.85 152.194 299.119 151.21 299.164C150.225 299.21 149.271 299.206 148.316 299.239C137.961 299.652 128.128 299.528 118.858 298.172H118.69C118.537 298.172 118.366 298.279 118.213 298.267C116.568 298.081 114.924 297.949 113.309 297.713C112.888 297.667 112.481 297.638 112.06 297.576L110.975 297.444C110.3 297.336 109.625 297.25 108.965 297.142C108.894 297.142 108.812 297.117 108.712 297.101L108.376 297.055L107.31 296.869C105.37 296.542 103.446 296.183 101.563 295.81C101.142 295.715 100.736 295.641 100.325 295.562C98.9494 295.281 97.5846 294.987 96.2236 294.661C95.97 294.615 95.7164 294.553 95.4778 294.491C94.1018 294.181 92.7371 293.838 91.376 293.494C91.0665 293.416 90.7421 293.337 90.4364 293.246C90.2126 293.184 90.0001 293.139 89.7913 293.089C89.355 292.965 88.9336 292.853 88.5123 292.729C87.0916 292.34 85.6746 291.935 84.2688 291.513C81.8525 290.798 79.466 290.033 77.0758 289.206C76.7961 289.111 76.5276 289.02 76.2592 288.941C75.67 288.738 75.092 288.527 74.5178 288.316C73.2798 287.878 72.0455 287.427 70.8225 286.96L68.5851 286.071C67.0414 285.479 65.5088 284.83 63.9762 284.185C63.2603 283.887 62.5555 283.577 61.8545 283.267C61.6867 283.205 61.5189 283.126 61.3474 283.048L60.8403 282.812C60.1952 282.531 59.5463 282.237 58.9162 281.956C57.8758 281.472 56.8653 280.988 55.8548 280.508C54.3222 279.793 52.7934 279.028 51.2757 278.234C50.7425 277.952 50.2204 277.688 49.7021 277.406C43.5186 273.587 37.9695 268.623 33.2951 262.729C23.4023 249.644 19.2447 232.832 18.7524 215.317C25.5949 215.284 72.6422 201.591 75.368 200.408C77.7694 199.366 80.1297 198.274 82.4528 197.166C91.4182 192.793 100.093 187.723 108.413 181.992C117.494 175.71 126.212 168.804 134.515 161.313C146.556 150.561 158.007 138.737 169.567 126.288C177.7 117.516 195.374 117.748 197.761 103.339C199.025 95.7213 195.33 88.7237 188.04 88.0082C190.076 75.0593 200.949 58.9177 207.173 47.5611C213.985 35.0961 221.67 22.7097 231.645 13.0653C253.321 -7.90684 278.103 -1.65781 298.795 17.8503C341.442 58.1071 359.478 90.2497 365.407 122.504C366.052 125.978 366.56 129.423 366.899 132.88C366.985 133.488 367.041 134.063 367.097 134.659C367.447 138.29 367.671 141.921 367.757 145.581C367.784 146.546 367.798 147.511 367.798 148.476C367.865 151.28 367.824 154.068 367.738 156.905Z" fill="url(#paint0_linear)"/>
<path fill-rule="evenodd" clip-rule="evenodd" d="M106.385 223.059C106.124 223.58 106.439 224.322 107.047 224.24L107.238 224.528C107.825 225.361 109.201 224.564 108.608 223.728L108.557 223.643C111.83 222.202 115.022 220.127 116.283 216.619C117.681 212.732 114.668 210.345 110.971 211.469C110.787 211.52 110.63 211.639 110.532 211.802C110.336 211.711 110.108 211.718 109.918 211.82C109.728 211.923 109.596 212.109 109.564 212.323C109.231 214.204 108.457 215.474 107.329 216.973C106.812 217.589 106.393 218.28 106.088 219.024C105.641 220.354 105.747 221.809 106.385 223.059Z" fill="#FFC926"/>
<path fill-rule="evenodd" clip-rule="evenodd" d="M132.861 201.854C132.601 202.375 132.916 203.117 133.524 203.035L133.714 203.323C134.301 204.156 135.678 203.359 135.085 202.523L135.033 202.438C138.307 200.996 141.498 198.921 142.76 195.414C144.157 191.527 141.144 189.14 137.447 190.264C137.264 190.315 137.107 190.434 137.009 190.597C136.813 190.506 136.585 190.513 136.395 190.615C136.204 190.718 136.073 190.904 136.041 191.118C135.708 192.999 134.933 194.269 133.805 195.768C133.288 196.383 132.87 197.075 132.565 197.819C132.117 199.149 132.224 200.604 132.861 201.854Z" fill="#FFC926"/>
<path fill-rule="evenodd" clip-rule="evenodd" d="M143.785 154.438C144.856 155.347 146.777 155.365 148.484 155.42C148.771 155.42 149.046 155.441 149.309 155.456C152.316 155.657 155.267 156.375 158.031 157.577C158.947 157.964 159.843 158.386 160.72 158.843C165.068 161.09 169.004 164.123 172.758 167.246C173.006 167.458 173.26 167.664 173.511 167.876L174.885 169.033C177.42 171.153 180.027 173.313 182.732 175.246C187.848 178.899 193.344 181.783 199.531 182.292C210.764 183.201 220.844 176.012 229.238 168.479C230.331 167.491 231.356 166.492 232.415 165.489C234.263 163.823 236.121 162.157 238.012 160.53C242.047 157.095 246.24 153.911 250.881 151.691C252.788 150.769 254.78 150.032 256.828 149.492C258.586 149.034 260.459 149.055 262.274 148.525C264.463 148.486 266.554 147.611 268.122 146.081C268.369 145.853 268.602 145.61 268.82 145.354C270.663 143.264 271.706 140.456 272.798 138.041C273.639 136.184 274.493 134.309 275.488 132.516C276.442 130.738 277.633 129.097 279.027 127.639C279.572 127.04 280.15 126.472 280.758 125.937C280.937 125.788 281.126 125.651 281.324 125.528C281.584 125.367 282.987 124.792 283.018 124.792L283.16 124.61C284.197 123.453 286.808 120.52 286.488 118.809C285.804 115.044 276.166 113.232 273.177 112.732C263.841 111.184 254.293 112.251 244.83 112.069C233.174 111.857 221.5 109.703 210.697 105.371C208.595 104.529 206.528 103.603 204.495 102.594C199.147 99.931 194.052 96.6807 188.413 94.7177C186.677 94.1078 184.889 93.6566 183.071 93.3697C178.929 92.7276 174.679 93.0517 170.991 94.9601C164.423 98.3528 161.183 105.783 158.436 112.654C158.436 113.92 157.124 115.94 156.639 117.134C155.936 118.899 155.23 120.665 154.522 122.432C153.11 125.964 151.698 129.498 150.287 133.034C147.894 139.014 144.182 145.033 143.026 151.418C142.763 152.939 143.093 153.866 143.785 154.438Z" fill="#FF8787"/>
<path fill-rule="evenodd" clip-rule="evenodd" d="M12.0252 209.446C21.7997 219.033 35.9244 224.573 49.4108 220.048C61.4784 215.992 69.8037 203.705 66.9389 190.967C70.018 188.69 72.954 186.225 75.7301 183.585C76.4773 182.879 75.3489 181.768 74.6078 182.461C71.8535 185.076 68.9407 187.518 65.8861 189.774C65.6446 189.82 65.4367 189.972 65.3204 190.189C49.9546 201.359 31.5668 207.6 12.5849 208.088C12.2677 208.096 11.985 208.291 11.8639 208.585C11.7427 208.878 11.806 209.216 12.0252 209.446Z" fill="#FFCF40"/>
<path fill-rule="evenodd" clip-rule="evenodd" d="M147.222 151.139C147.344 152.637 147.774 154.094 148.483 155.419C148.771 155.419 149.046 155.44 149.309 155.455C152.316 155.657 155.266 156.374 158.031 157.576C158.947 157.964 159.843 158.386 160.72 158.842C160.636 157.933 160.566 157.025 160.53 156.137C160.382 155.977 160.227 155.807 160.091 155.637C157.429 152.466 156.134 147.737 157.925 143.823C159.807 139.719 164.517 137.865 168.801 137.901C170.289 139.655 172.376 140.728 174.549 141.654C178.082 143.151 181.682 144.559 185.324 145.768C193.102 148.355 201.358 149.67 209.393 147.477C210.325 147.222 210.019 146.013 209.181 145.914C204.005 145.294 198.925 144.04 194.055 142.179C190.576 140.849 189.989 136.214 192.924 133.921C193.172 133.719 193.418 133.517 193.662 133.315L193.716 133.27C196.749 130.684 201.051 130.212 204.571 132.079C220.653 140.812 239.389 143.293 257.185 139.046C258.187 138.801 257.757 137.292 256.762 137.514C240.377 141.149 222.879 136.387 210.343 125.5C206.888 122.476 205.895 117.505 207.923 113.383L207.953 113.319C209.216 110.793 210.142 108.112 210.706 105.343C208.604 104.501 206.537 103.575 204.504 102.566C199.156 99.903 194.061 96.6527 188.422 94.6898C186.686 94.0798 184.897 93.6287 183.08 93.3418C176.727 95.9984 170.722 99.7698 166.16 104.995C160.896 111.017 158.022 118.569 155.136 125.918C153.349 130.548 151.553 135.161 149.748 139.755C148.335 143.39 146.889 147.174 147.222 151.139Z" fill="#FF7070"/>
<path fill-rule="evenodd" clip-rule="evenodd" d="M160.091 155.647C160.233 155.816 160.394 155.986 160.53 156.146C163.818 159.721 168.716 161.417 173.329 162.483C174.675 162.797 176.029 163.058 177.392 163.268C186.244 164.625 195.284 164.062 203.899 161.617C213.68 158.867 222.879 153.308 230.566 146.713C231.002 146.338 231.35 145.738 231.138 145.199C230.926 144.66 233.936 143.787 233.168 143.736C231.982 143.645 226.848 144.59 226.21 144.732C224.213 145.178 222.187 145.529 220.16 145.808C216.242 146.35 212.289 146.596 208.334 146.544C200.404 146.443 192.537 145.123 185.007 142.63C182.571 141.818 180.139 140.758 177.677 139.852C174.7 138.75 171.666 137.868 168.489 137.911C164.29 137.962 159.755 139.825 157.919 143.833C156.134 147.746 157.426 152.478 160.091 155.647Z" fill="#7AF6FF"/>
<path fill-rule="evenodd" clip-rule="evenodd" d="M234.387 146.95C240.089 147.706 245.646 149.305 250.878 151.697C252.785 150.775 254.777 150.038 256.825 149.498C258.583 149.04 260.456 149.062 262.271 148.531C264.46 148.492 266.551 147.618 268.119 146.087C268.366 145.859 268.6 145.616 268.817 145.36C257.712 142.094 243.269 140.816 231.97 143.815C231.668 143.894 234.142 145.154 234.088 145.381C233.389 145.584 233.501 146.835 234.387 146.95Z" fill="#FF7070"/>
<path fill-rule="evenodd" clip-rule="evenodd" d="M160.091 155.646C160.233 155.816 160.394 155.986 160.53 156.146C160.424 153.326 160.63 150.515 161.61 147.852C163.425 142.933 167.197 140.213 172.398 140.016C174.213 139.946 175.952 139.952 177.683 139.861C174.706 138.759 171.672 137.877 168.495 137.919C164.296 137.971 159.761 139.834 157.925 143.842C156.134 147.746 157.426 152.478 160.091 155.646Z" fill="#5CD6FF"/>
<path fill-rule="evenodd" clip-rule="evenodd" d="M205.055 121.435C214.763 130.428 226.818 137.12 239.863 139.307C252.064 141.336 265.105 139.201 275.497 132.552C276.447 130.761 277.636 129.108 279.03 127.638C279.575 127.039 280.153 126.471 280.761 125.936C274.105 123.816 262.969 123.285 256.713 123.894C249.925 124.558 243.185 125.881 236.363 125.866C225.814 125.863 215.54 122.655 205.055 121.435Z" fill="#FFCF40"/>
<path fill-rule="evenodd" clip-rule="evenodd" d="M174.881 169.042C182.211 175.191 190.485 180.801 199.942 181.583C211.175 182.491 220.84 176.027 229.235 168.49C230.327 167.503 231.353 166.503 232.412 165.501C234.26 163.835 236.117 162.169 238.008 160.542C239.745 156.22 240.906 151.688 241.46 147.062C241.548 146.753 241.371 146.432 241.064 146.341C241.035 145.969 240.722 145.684 240.35 145.69C240.286 145.334 239.985 145.069 239.624 145.054C232.278 144.587 236.387 142.657 229.504 144.369C230.273 144.423 230.914 144.651 231.135 145.211C231.356 145.771 230.999 146.341 230.563 146.726C222.873 153.323 213.676 158.879 203.896 161.629C195.281 164.073 186.243 164.635 177.392 163.277C175.879 164.604 175.005 166.306 174.887 168.893C174.887 168.936 174.881 168.987 174.881 169.042Z" fill="#FF7070"/>
<path fill-rule="evenodd" clip-rule="evenodd" d="M177.389 163.265C186.242 164.623 195.282 164.061 203.899 161.617C213.679 158.866 222.879 153.308 230.566 146.713C231.002 146.338 231.35 145.738 231.138 145.199C230.926 144.659 230.276 144.408 229.507 144.356C229.45 144.356 229.386 144.384 229.329 144.399C226.273 145.162 217.304 148.234 214.396 149.445C211.214 150.781 204.207 155.586 200.952 156.737C195.28 158.73 187.439 158.251 181.866 160.675C180.06 161.453 178.545 162.247 177.389 163.265Z" fill="#5CD6FF"/>
<path fill-rule="evenodd" clip-rule="evenodd" d="M30.1551 292.227L30.255 292.148C34.6869 288.75 34.8926 278.82 36.6745 273.785C39.3216 266.288 42.6798 259.062 46.703 252.205C54.9376 238.15 65.5289 226.197 77.9081 213.61C82.4459 208.997 87.3165 204.826 92.1568 200.555C93.4572 199.422 94.6924 198.216 95.8566 196.944C97.056 195.646 98.1137 194.225 99.0119 192.703C99.7 191.531 100.247 190.281 100.643 188.98C100.889 188.17 101.064 187.34 101.166 186.499C101.485 183.987 100.924 181.442 99.5776 179.299C96.7975 174.825 91.0042 172.425 85.8099 174.479C85.6829 173.722 85.5558 172.965 85.4287 172.21C85.2593 171.202 83.7286 171.659 83.8919 172.662C83.9343 172.922 83.9827 173.24 84.025 173.504C83.8919 173.41 83.7225 173.455 83.5713 173.455H83.4079C83.2113 172.925 82.8029 172.807 82.3763 173.101C73.456 179.23 65.4291 186.571 58.5255 194.911C56.4341 197.452 54.4516 200.077 52.578 202.787C49.2275 207.6 46.2346 212.654 43.6234 217.906C42.1773 220.806 40.8503 223.764 39.6422 226.781C34.7474 238.989 33.7612 250.927 32.4876 263.922C31.6829 272.141 30.019 280.189 29.063 288.392C28.8845 289.883 28.939 291.288 30.1551 292.227Z" fill="#95A5FF"/>
<path fill-rule="evenodd" clip-rule="evenodd" d="M84.0311 191.406C84.674 190.725 85.6514 190.476 86.541 190.767C87.4306 191.058 88.0731 191.837 88.1907 192.766C88.4284 194.78 88.0741 196.819 87.1712 198.634C85.0899 202.811 81.1208 205.468 77.3756 208.009C71.2223 212.183 65.6711 216.991 60.985 222.798C54.0592 231.38 49.1751 241.428 46.703 252.181C54.9376 238.126 65.5289 226.172 77.908 213.586C82.4458 208.973 87.3164 204.801 92.1568 200.53C95.7689 197.343 99.2509 193.615 100.646 188.956C98.6549 184.539 94.3107 182.291 89.8576 182.594C88.0939 181.501 86.427 181.046 85.2079 181.731C79.9228 184.712 74.8223 188.092 69.7611 191.518C64.0616 195.374 58.4075 199.285 52.5779 202.766C49.2275 207.579 46.2346 212.632 43.6233 217.884C44.422 217.678 45.2237 217.448 46.0163 217.2C54.8922 214.428 63.0724 209.518 70.5023 203.668C75.2561 199.877 79.7647 195.788 84.0008 191.424L84.0311 191.406Z" fill="#788CFF"/>
<path fill-rule="evenodd" clip-rule="evenodd" d="M129.92 171.235C130.526 170.108 134.434 165.507 135.511 168.097C136.213 169.784 135.632 172.84 136.116 174.782C136.909 177.887 139.401 184.342 142.705 185.687C144.52 186.423 146.29 187.066 147.742 187.665C153.23 189.928 158.73 193.939 158.999 200.388C159.035 201.297 157.686 201.448 157.438 200.6C156.521 197.352 154.342 194.607 151.387 192.982C152.779 197.277 152.227 201.966 149.875 205.819C149.339 206.701 148.026 205.919 148.504 205.013C148.734 204.574 148.936 204.121 149.109 203.656C150.144 200.879 149.515 197.846 147.27 195.868C146.048 194.784 144.519 194.108 142.896 193.933C142.012 193.854 141.122 193.998 140.309 194.354C138.988 193.41 137.491 192.742 135.907 192.388C136.155 192.442 135.396 189.359 135.281 189.113C134.731 187.874 133.808 186.884 132.976 185.839C131.161 183.552 129.603 181.186 129.043 178.266C128.632 175.985 128.804 173.331 129.92 171.235Z" fill="#FFC926"/>
<path fill-rule="evenodd" clip-rule="evenodd" d="M181.658 171.15C181.709 172.21 182.102 173.643 182.729 175.254C187.844 178.907 193.341 181.791 199.528 182.3C210.76 183.209 220.84 176.021 229.235 168.487C230.327 167.499 231.353 166.5 232.412 165.491C234.26 163.825 236.118 162.159 238.008 160.532C243.696 155.686 249.707 151.402 256.822 149.545C257.702 149.328 258.592 149.16 259.49 149.04C259.929 148.976 260.368 148.903 260.806 148.837C261.051 148.797 261.853 148.909 262.016 148.667C262.134 148.482 261.054 147.798 260.867 147.67C259.384 146.689 257.696 146.277 256.054 145.653C254.569 145.09 253.054 144.612 251.516 144.22C245.349 142.654 238.913 142.474 232.669 143.693C231.904 143.842 231.145 144.013 230.391 144.205C228.509 144.679 226.663 145.287 224.867 146.022C218.989 148.425 214.439 152.417 209.438 156.198C206.828 158.17 204.053 159.993 200.913 160.981C197.585 162.02 194.055 161.844 190.673 162.577C190.668 162.579 190.663 162.579 190.658 162.577C186.958 163.383 181.446 166.782 181.658 171.15Z" fill="#95A5FF"/>
<path fill-rule="evenodd" clip-rule="evenodd" d="M106.56 82.8336C111.981 113.477 116.67 144.208 120.037 175.154C119.978 175.28 119.953 175.419 119.964 175.557C120.376 180.622 124.058 185.075 129.252 185.663C129.47 185.69 129.681 185.705 129.893 185.717C135.103 186.02 139.002 182.603 141.023 177.966C144.069 170.998 146.468 163.671 149.14 156.555C151.358 150.674 153.577 144.789 155.795 138.898C155.952 138.462 156.119 138.035 156.282 137.598C156.44 137.565 156.58 137.474 156.675 137.344L159.534 133.833C159.68 133.724 159.786 133.571 159.837 133.397C159.945 133.158 159.932 132.882 159.8 132.655C158.333 123.443 163.322 114.783 163.543 105.656C163.875 92.0242 155.553 79.456 143.08 74.1701C130.958 69.0204 116.957 71.6983 107.289 80.4375C107.026 80.3959 106.759 80.4785 106.566 80.661C106.372 80.8435 106.274 81.1055 106.3 81.3705C106.251 81.419 106.206 81.4614 106.157 81.5038C105.96 81.7123 105.89 82.0108 105.973 82.2857C106.056 82.5607 106.28 82.7698 106.56 82.8336Z" fill="#FF7070"/>
<path fill-rule="evenodd" clip-rule="evenodd" d="M103.919 192.633C105.613 189.47 108.457 187.311 109.101 192.936C109.703 198.297 112.241 203.252 116.238 206.87C118.053 207.606 119.823 208.248 121.275 208.848C126.762 211.111 132.262 215.122 132.532 221.571C132.568 222.48 131.219 222.631 130.97 221.783C130.054 218.535 127.874 215.79 124.92 214.164C126.312 218.46 125.759 223.149 123.407 227.002C122.872 227.884 121.559 227.102 122.037 226.196C122.266 225.757 122.469 225.304 122.642 224.839C123.677 222.062 123.047 219.029 120.803 217.051C119.581 215.967 118.052 215.291 116.428 215.116C115.545 215.036 114.655 215.181 113.842 215.537C112.521 214.593 111.024 213.925 109.44 213.571C109.632 211.155 108.586 208.808 106.663 207.337L106.593 207.282C103.474 204.819 102.14 200.097 102.661 196.144C102.877 194.91 103.303 193.723 103.919 192.633Z" fill="#FFC926"/>
<path fill-rule="evenodd" clip-rule="evenodd" d="M27.6351 213.189C49.2412 208.681 65.9857 192.59 85.2139 181.74C86.7538 180.876 89.0106 181.825 91.2644 183.6C95.061 186.562 96.4707 192.284 97.0123 195.189C97.7171 197.664 99.4324 194.814 99.4324 194.844C100.08 198.176 102.479 201.732 105.876 201.684C107.443 201.663 108.901 200.872 110.175 199.972C120.936 192.463 123.313 177.923 128.099 165.706C132.785 153.735 140.406 143.181 146.586 131.903C157.94 111.172 164.505 74.4668 131.823 70.1683C119.214 68.5083 106.436 74.4304 97.5205 83.4968C88.6052 92.5632 83.0902 104.477 79.1605 116.588C75.2307 128.698 72.7107 141.227 68.8022 153.344C66.5337 160.44 63.7137 167.348 60.3679 174.003C52.578 189.485 41.778 203.353 27.6351 213.189Z" fill="#FF8787"/>
<path fill-rule="evenodd" clip-rule="evenodd" d="M154.709 120.55C154.948 124.915 155.986 128.911 157.735 131.383V131.404C157.735 131.801 157.828 132.313 158.358 132.458C173.585 136.792 189.541 128.458 194.706 113.474C194.777 113.302 194.777 113.109 194.706 112.938C194.679 112.723 194.558 112.53 194.376 112.413C194.193 112.296 193.968 112.266 193.762 112.332C193.493 112.408 193.223 112.471 192.951 112.535C192.231 112.717 191.438 113.489 190.679 113.765C189.775 114.085 188.837 114.298 187.884 114.401C186.016 114.609 184.128 114.562 182.272 114.262C178.908 113.741 175.287 112.692 172.839 110.206C172.627 109.997 172.425 109.777 172.234 109.548C171.327 108.43 170.555 107.194 169.593 106.122C169.255 105.75 168.577 105.013 168.063 105.516C168.014 105.565 167.972 105.622 167.927 105.671C167.694 105.771 159.153 101.409 159.087 101.645C157.139 103.787 156.382 107.07 155.566 110.457C154.802 113.763 154.514 117.162 154.709 120.55Z" fill="#FFCF40"/>
<path fill-rule="evenodd" clip-rule="evenodd" d="M27.6354 213.189C36.6172 211.317 44.749 207.434 52.5813 202.775C63.5839 196.211 73.9755 188.077 85.2112 181.74C86.2125 181.177 87.5103 181.386 88.917 182.079C89.9759 187.026 90.8804 194.854 95.8599 196.941C97.0592 195.643 98.117 194.222 99.0152 192.7C98.2831 188.256 98.749 183.77 99.5809 179.296L99.596 179.217C100.629 173.844 103.474 168.99 107.655 165.467C111.188 162.463 114.996 159.799 119.03 157.513C125.658 153.763 131.942 149.452 137.384 144.051C142.999 138.483 147.397 131.849 151.736 125.27C152.758 123.728 153.768 122.153 154.706 120.541C154.522 117.155 154.822 113.759 155.596 110.457C155.55 110.449 155.504 110.438 155.46 110.424C144.148 129.347 130.91 145.978 111.936 156.468C111.606 155.541 106.348 153.054 106.085 153.847C106.052 153.947 106.016 154.044 105.985 154.15C105.879 154.049 105.744 153.984 105.598 153.966C88.0065 151.085 72.9833 162.947 60.3651 174.004C52.5782 189.486 41.7782 203.354 27.6354 213.189Z" fill="#FF7070"/>
<path fill-rule="evenodd" clip-rule="evenodd" d="M154.709 120.55C154.948 124.915 155.986 128.911 157.735 131.383V131.404C157.735 131.801 157.828 132.313 158.358 132.458C166.312 134.726 174.849 133.581 181.927 129.299C181.746 129.213 181.537 129.213 181.355 129.299C177.701 130.741 173.454 132.47 169.557 130.874C164.647 128.868 165.47 124.513 167.863 120.941C170.214 117.442 172.005 113.989 172.852 110.203C172.639 109.994 172.437 109.774 172.247 109.545C171.339 108.427 170.568 107.192 169.606 106.119C169.267 105.747 168.589 105.011 168.075 105.513C168.026 105.562 167.984 105.619 167.939 105.668C167.706 105.768 159.166 101.406 159.099 101.642C157.151 103.784 156.394 107.067 155.578 110.454C154.81 113.761 154.517 117.161 154.709 120.55Z" fill="#005C4C"/>
<path fill-rule="evenodd" clip-rule="evenodd" d="M98.7368 85.1992C98.8941 84.8751 99.0665 84.5631 99.2299 84.245C99.4058 84.5288 99.7434 84.668 100.068 84.5903C110.656 82.4072 121.618 82.8607 131.99 85.9111C141.247 88.6192 149.116 93.3659 156.443 99.3425C157.342 100.08 158.236 100.834 159.123 101.605C159.241 101.702 159.35 101.802 159.468 101.908C166.102 107.718 173.335 113.977 182.459 115C190.174 115.864 197.815 112.153 202.387 105.964C212.902 91.7271 204.982 72.9613 191.916 63.6889C184.217 58.2363 174.918 55.3737 165.66 53.9803C155.995 52.5233 146.051 52.6444 136.497 54.8285C131.569 55.9497 126.795 57.6657 122.279 59.9387C111.872 65.1611 103.024 73.3066 97.6447 83.827L97.3603 84.3995C96.9096 85.3083 98.283 86.111 98.7368 85.1992Z" fill="#FF8787"/>
<path fill-rule="evenodd" clip-rule="evenodd" d="M161.389 83.3644C166.513 87.469 173.341 89.235 172.948 97.1291C172.7 102.176 170.988 107.607 175.262 111.521C183.279 118.864 195.619 114.008 202.408 107.216C202.595 107.023 202.671 106.747 202.61 106.484C202.549 106.221 202.359 106.008 202.105 105.917C202.037 105.637 201.827 105.414 201.551 105.33C201.276 105.246 200.977 105.313 200.765 105.508C197.942 108.195 194.367 111.566 190.095 110.391C184.075 108.725 187.448 102.56 190.149 99.6494C194.109 95.3752 196.557 91.1858 195.329 85.1638C193.008 73.8285 181.316 69.2574 171.075 67.858C166.262 67.2006 160.03 67.2521 157.392 72.1958C155.136 76.4185 158.125 80.7563 161.389 83.3644Z" fill="white"/>
<path fill-rule="evenodd" clip-rule="evenodd" d="M94.6892 86.6562L94.7467 86.5926C96.3452 85.8254 97.4168 84.0664 98.3847 82.4778L98.3848 82.4775C98.613 82.103 98.8354 81.7379 99.0576 81.3975C99.1438 81.2756 99.2017 81.1358 99.227 80.9886C101.151 77.7682 103.414 74.7641 105.979 72.0282C118.159 59.0027 140.067 58.1727 151.962 72.0797C159.054 80.3737 159.807 91.1637 159.132 101.614C158.249 100.841 157.355 100.087 156.452 99.3516C155.463 88.5343 151.581 77.5414 141.628 72.8613C143.881 84.8708 141.53 97.2893 135.042 107.639C134.268 111.215 137.465 113.983 140.573 116.675C142.613 118.442 144.615 120.175 145.431 122.083C147.025 125.821 146.169 130.667 142.488 132.824C139.045 134.851 134.819 133.878 132.764 130.449C130.096 125.999 129.491 119.88 129.633 114.631C129.547 114.722 129.461 114.815 129.376 114.908L129.376 114.909C129.288 115.004 129.2 115.099 129.11 115.194C129.1 115.259 129.091 115.323 129.082 115.387C129.073 115.456 129.064 115.524 129.053 115.591C128.91 116.376 127.945 116.285 127.619 115.73C127.413 115.587 127.291 115.352 127.291 115.102C127.291 114.851 127.413 114.617 127.619 114.473C127.623 114.461 127.631 114.45 127.64 114.44C128.402 109.069 126.992 103.517 122.799 99.8575C118.355 95.9861 112.145 95.4136 106.917 97.8794C106.987 98.2308 107.044 98.5791 107.087 98.9336C107.201 99.9514 105.613 99.9423 105.498 98.9336C105.456 98.5943 105.401 98.2611 105.335 97.9309C104.573 98.2611 103.937 96.9918 104.73 96.4345C104.766 96.3436 104.793 96.2709 104.824 96.174C103.294 92.1618 99.7851 89.2393 95.5665 88.4647C95.2848 88.4383 95.0524 88.2325 94.9917 87.9557C94.7424 87.86 94.5568 87.6467 94.4962 87.3863C94.4356 87.126 94.5079 86.8525 94.6892 86.6562ZM121.042 96.7404C121.841 97.1794 122.601 97.6862 123.314 98.255C123.335 98.2732 123.358 98.2906 123.38 98.308L123.38 98.3081C123.403 98.3255 123.426 98.3429 123.447 98.361C129.171 103.023 137.756 100.221 139.514 93.0478C141.205 86.1867 141.318 79.0303 139.843 72.1191C139.187 71.8737 138.515 71.6587 137.811 71.4678C134.684 70.6426 131.451 70.2923 128.221 70.4288C125.617 75.7329 122.404 80.7144 118.646 85.2719C115.599 88.9402 116.837 94.4291 121.042 96.7404ZM100.129 88.1012C99.7755 87.6393 99.4903 87.1293 99.2815 86.5866L99.2845 86.5714C97.7591 82.7248 100.748 80.8558 103.549 79.1043C103.931 78.8654 104.309 78.6287 104.672 78.3895C106.851 76.9766 109.128 75.7213 111.485 74.6333C116.181 72.4147 121.227 71.031 126.396 70.5439C122.872 77.4863 118.295 83.8402 112.828 89.3795C109.955 92.2864 105.338 92.5075 102.201 89.8884C101.898 89.6491 101.596 89.4158 101.293 89.1977C101.293 89.1249 100.924 88.8068 100.598 88.5265C100.382 88.3405 100.185 88.1712 100.129 88.1012Z" fill="#FF7070"/>
<path fill-rule="evenodd" clip-rule="evenodd" d="M129.891 185.718C135.1 186.021 139 182.604 141.02 177.966C144.067 170.999 146.466 163.671 149.137 156.556C151.356 150.675 153.574 144.789 155.792 138.898C149.137 142.128 143.537 147.477 139.487 153.805C133.397 163.314 131.013 174.561 129.891 185.718Z" fill="#FF8787"/>
<path fill-rule="evenodd" clip-rule="evenodd" d="M99.4628 164.55C101.58 164.725 103.45 163.338 105.044 162.126C107.664 160.139 110.239 158.079 112.84 156.068C118.179 151.916 123.514 147.764 128.847 143.612C135.541 138.396 144.765 129.98 138.812 120.781C137.048 117.997 134.159 116.123 130.901 115.649C126.741 115.039 122.572 116.692 119.956 119.987C111.715 126.042 105.014 133.955 100.395 143.085C99.0007 145.823 97.788 148.651 96.7643 151.548C94.7344 157.434 93.7603 164.077 99.4628 164.55Z" fill="#FFCF40"/>
<path fill-rule="evenodd" clip-rule="evenodd" d="M96.7583 151.533C100.93 151.908 104.896 149.23 108.106 146.91C116.235 141.018 124.4 133.239 128.701 124.003C129.946 121.375 130.693 118.538 130.904 115.637C126.744 115.027 122.575 116.679 119.959 119.974C111.718 126.03 105.017 133.942 100.398 143.072C99.0007 145.809 97.785 148.636 96.7583 151.533Z" fill="#FFC926"/>
<path fill-rule="evenodd" clip-rule="evenodd" d="M87.2831 141.34C87.3857 142.639 87.7588 143.902 88.3783 145.048C89.4625 147.152 91.5182 148.581 93.866 148.862C98.1285 149.365 102.185 146.629 105.459 144.26C113.587 138.369 121.752 130.59 126.054 121.354C129.739 113.438 129.306 103.902 121.574 98.6346C117.57 95.911 112.498 95.2948 107.96 96.9807C104.963 98.0596 102.347 99.9954 100.437 102.548C100.233 102.783 100.233 103.132 100.437 103.366C100.416 104.417 100.4 105.459 100.379 106.511C100.379 106.602 100.393 106.693 100.422 106.78L92.6378 124.804C90.4778 129.787 86.787 135.706 87.2831 141.34Z" fill="#FFCF40"/>
<path fill-rule="evenodd" clip-rule="evenodd" d="M71.6068 145.172C71.6068 145.172 77.6088 147.647 84.3127 140.931C88.0942 137.145 93.712 134.703 99.1029 135.533C104.246 136.324 109.274 140.607 110.127 145.86C111.001 151.258 108.275 157.068 104.551 160.8C96.7947 168.567 85.8797 157.992 85.8797 157.992L66.1584 161.063L71.6068 145.172Z" fill="#FFC926"/>
<path fill-rule="evenodd" clip-rule="evenodd" d="M87.2835 141.339C87.386 142.638 87.7591 143.901 88.3786 145.047C93.0114 139.97 97.0913 134.414 100.549 128.471C105.595 119.787 111.891 107.191 107.964 96.9678C104.963 98.0495 102.346 99.9897 100.437 102.548C100.234 102.782 100.234 103.131 100.437 103.365C100.416 104.417 100.401 105.459 100.38 106.51C100.379 106.601 100.394 106.692 100.422 106.779L92.6381 124.803C90.4781 129.786 86.7873 135.705 87.2835 141.339Z" fill="#FFC926"/>
<path fill-rule="evenodd" clip-rule="evenodd" d="M27.0848 213.726C27.0848 213.726 55.2798 192.948 65.505 161.49C65.505 161.49 72.2663 157.346 87.2593 141.861C98.4223 130.329 112.19 146.589 100.54 161.439C100.555 161.433 74.8801 205.389 27.0848 213.726Z" fill="#95A5FF"/>
<path fill-rule="evenodd" clip-rule="evenodd" d="M90.3174 92.1515C74.4472 111.999 76.5164 137.614 67.5195 160.308C67.603 160.288 67.682 160.252 67.7524 160.202C79.8618 151.971 89.9808 141.134 97.3692 128.484C102.972 118.845 110.108 104.389 103.117 93.6994C101.129 90.6715 98.1933 88.3903 94.7705 87.2139C93.1996 88.7793 91.7131 90.4275 90.3174 92.1515Z" fill="#FFCF40"/>
<path fill-rule="evenodd" clip-rule="evenodd" d="M3.35511 202.157C7.44822 210.29 15.2896 216.506 24.6586 213.641C28.3494 212.523 32.2791 210.006 36.3027 205.619C45.6808 195.429 51.9521 186.972 56.1117 180.38C63.0697 169.363 64.186 163.55 64.186 163.55C64.186 163.55 59.8993 166.013 52.6388 168.775C43.3968 172.286 29.3749 176.278 13.3625 176.278C-0.81665 176.278 -2.24758 191.025 3.35511 202.157Z" fill="#959CFF"/>
<path fill-rule="evenodd" clip-rule="evenodd" d="M23.1522 214.038C25.1632 213.603 27.0909 212.846 28.8607 211.796C28.891 211.775 28.9303 211.76 28.9666 211.732C29.1633 211.62 29.3599 211.499 29.5535 211.378C29.7471 211.257 29.8772 211.178 30.0345 211.075C30.2614 210.92 30.4943 210.772 30.7243 210.608C30.8876 210.496 31.054 210.375 31.2174 210.254L31.6349 209.951C31.9101 209.745 32.1915 209.521 32.4728 209.288C33.1717 208.715 33.8705 208.076 34.5905 207.41C35.1622 206.858 35.7401 206.265 36.3179 205.638C45.696 195.447 51.9673 186.99 56.127 180.398C55.9091 180.383 55.7549 180.413 55.6883 180.498C52.058 185.163 47.1723 188.308 41.8419 190.688C37.8607 192.476 33.6224 193.833 29.493 195.084C26.1895 196.094 22.8708 197.045 19.537 197.937C9.31788 200.697 12.7969 216.17 23.1522 214.038Z" fill="#7AF6FF"/>
<path fill-rule="evenodd" clip-rule="evenodd" d="M177.77 97.3463C180.608 94.4449 181.554 90.1821 180.212 86.3503C179.885 85.3779 181.422 84.9599 181.742 85.9262C183.228 90.3112 182.127 95.1603 178.893 98.4701C178.185 99.2153 177.059 98.0884 177.77 97.3463Z" fill="#FFCF40"/>
<path fill-rule="evenodd" clip-rule="evenodd" d="M41.8267 190.673C47.1602 188.292 52.0519 185.148 55.6731 180.483C55.7427 180.398 55.897 180.365 56.1117 180.383C63.0697 169.366 64.186 163.553 64.186 163.553C64.186 163.553 59.8993 166.012 52.6388 168.775C50.2926 175.261 47.3273 181.506 43.784 187.423C43.1396 188.495 42.4892 189.583 41.8267 190.673Z" fill="#788CFF"/>
<path fill-rule="evenodd" clip-rule="evenodd" d="M24.6583 213.644C26.1227 213.186 27.5312 212.565 28.8573 211.793C28.8876 211.772 28.9269 211.757 28.9632 211.729C29.1598 211.617 29.3565 211.496 29.5501 211.375C29.7437 211.254 29.8738 211.175 30.0311 211.072C30.258 210.924 30.4879 210.769 30.7208 210.606C30.8842 210.493 31.0506 210.372 31.214 210.251L31.6314 209.948C31.9067 209.742 32.1881 209.518 32.4694 209.285C33.1692 208.717 33.8751 208.091 34.5871 207.407C35.1588 206.855 35.7366 206.262 36.3145 205.635C45.6926 195.444 51.9639 186.987 56.1235 180.395C55.9057 180.38 55.7514 180.41 55.6849 180.495C52.0546 185.16 47.1689 188.305 41.8385 190.686C36.977 198.613 31.2775 206.91 24.6583 213.644Z" fill="#5CD6FF"/>
<path fill-rule="evenodd" clip-rule="evenodd" d="M134.268 286.393C133.663 286.193 134.495 283.97 135.399 281.616C135.121 283.23 134.743 284.826 134.268 286.393Z" fill="#FFCE82"/>
<path fill-rule="evenodd" clip-rule="evenodd" d="M181.918 86.0658C181.803 87.2472 181.679 88.4619 181.513 89.6191C181.356 90.7525 181.127 91.8746 180.826 92.9785C180.538 94.0357 180.393 95.0989 179.958 96.0561C179.558 97.0344 178.916 97.8953 178.094 98.5582L178.052 98.5916C177.785 98.8114 177.706 99.1873 177.862 99.4963C178.018 99.8052 178.367 99.9642 178.702 99.879C180.113 99.4899 181.351 98.6361 182.217 97.4556C183.09 96.3436 183.693 95.0445 183.981 93.66C184.186 92.3436 184.231 91.007 184.114 89.6797C184.016 88.3772 183.76 87.0915 183.352 85.8508C183.241 85.5223 182.916 85.316 182.572 85.3554C182.228 85.3948 181.958 85.6693 181.924 86.0143L181.918 86.0658Z" fill="#233940"/>
<path fill-rule="evenodd" clip-rule="evenodd" d="M143.05 155.383C145.825 155.48 148.577 155.924 151.243 156.704C151.905 156.916 152.583 157.07 153.23 157.328L155.194 158.043L157.111 158.87C157.756 159.133 158.367 159.475 158.999 159.778C164.009 162.244 168.641 165.467 172.997 169.002C174.077 169.911 175.154 170.802 176.21 171.729C177.265 172.655 178.246 173.607 179.416 174.558L181.11 175.985L182.926 177.254L183.833 177.887L184.804 178.432L186.752 179.514C192.128 182.058 198.151 183.376 204.099 182.876C205.594 182.84 207.055 182.528 208.528 182.316C209.254 182.152 209.971 181.952 210.694 181.773L211.774 181.492L212.827 181.119C213.526 180.865 214.237 180.634 214.923 180.359L216.947 179.42C217.622 179.107 218.277 178.753 218.907 178.359L219.869 177.796C220.196 177.614 220.511 177.411 220.813 177.19C222.048 176.365 223.229 175.463 224.35 174.488L225.191 173.761C225.478 173.527 225.749 173.273 226.002 173.001L227.541 171.395C228.074 170.856 228.506 170.341 228.981 169.814C229.456 169.287 229.922 168.772 230.397 168.257C230.872 167.742 231.353 167.23 231.843 166.742C232.333 166.255 232.814 165.731 233.323 165.246C235.305 163.265 237.394 161.393 239.579 159.639C240.656 158.73 241.793 157.937 242.906 157.11L244.643 155.943C245.215 155.544 245.829 155.216 246.422 154.85C251.189 152.005 256.514 149.985 262.05 149.788H262.068C262.469 149.783 262.79 149.453 262.785 149.052C262.78 148.65 262.451 148.329 262.05 148.334C259.12 148.328 256.204 148.75 253.395 149.585C250.575 150.373 247.928 151.636 245.378 153.014C244.752 153.378 244.095 153.702 243.49 154.099L241.648 155.256C240.456 156.077 239.249 156.879 238.111 157.77C235.806 159.509 233.596 161.371 231.492 163.35C230.957 163.831 230.446 164.34 229.928 164.843C229.411 165.346 228.894 165.849 228.395 166.358C227.895 166.867 227.381 167.382 226.882 167.912C226.383 168.442 225.896 168.993 225.415 169.451L223.966 170.892C223.73 171.138 223.476 171.366 223.206 171.574L222.42 172.222C221.374 173.092 220.275 173.894 219.128 174.624C218.848 174.817 218.556 174.991 218.254 175.145L217.365 175.639C216.78 175.987 216.174 176.297 215.549 176.566L213.692 177.393C213.063 177.642 212.412 177.841 211.777 178.069L210.818 178.402L209.832 178.647C209.172 178.805 208.519 178.98 207.859 179.126C206.519 179.317 205.194 179.626 203.839 179.659C201.138 179.875 198.42 179.743 195.752 179.268L193.762 178.865C193.105 178.708 192.464 178.481 191.814 178.293L190.84 177.99C190.519 177.878 190.21 177.735 189.896 177.611L188.014 176.836L186.217 175.882L185.309 175.403L184.462 174.836L182.762 173.707L181.171 172.413L180.372 171.768C180.106 171.55 179.831 171.301 179.562 171.068C179.017 170.599 178.485 170.117 177.925 169.66L176.264 168.281L174.567 166.945C169.993 163.447 165.137 160.263 159.861 157.858C159.196 157.555 158.548 157.252 157.868 156.991L155.838 156.21L153.766 155.541C153.079 155.301 152.362 155.165 151.648 154.971C148.82 154.264 145.914 153.914 142.999 153.929C142.6 153.929 142.276 154.253 142.276 154.653C142.276 155.053 142.6 155.377 142.999 155.377L143.05 155.383Z" fill="#233940"/>
<path fill-rule="evenodd" clip-rule="evenodd" d="M187.375 93.1056C188.079 93.8433 188.819 94.5449 189.593 95.2079L190.742 96.1833L191.931 97.092C193.524 98.3071 195.178 99.4395 196.887 100.485C197.725 101.036 198.605 101.509 199.479 101.999C200.354 102.49 201.222 102.987 202.129 103.408L204.825 104.729L207.59 105.895L208.975 106.473L210.388 106.976L213.217 107.973C214.158 108.312 215.132 108.542 216.091 108.833L218.974 109.66C220.925 110.093 222.873 110.545 224.827 110.963L230.748 111.92C232.732 112.138 234.723 112.323 236.71 112.526C237.703 112.65 238.704 112.641 239.699 112.689L242.694 112.798C244.703 112.892 246.657 112.892 248.624 112.929C250.59 112.965 252.557 113.026 254.511 113.107C262.349 113.438 270.178 114.125 277.829 115.531C278.785 115.709 279.735 115.9 280.679 116.112C280.903 116.164 281.178 116.215 281.36 116.267L281.647 116.343L281.913 116.436C282.255 116.556 282.582 116.714 282.887 116.909C283.455 117.276 283.901 117.803 284.17 118.424C284.445 119.081 284.544 119.8 284.457 120.508C284.317 121.975 283.461 123.277 282.17 123.985C281.534 124.303 280.822 124.438 280.113 124.373C279.924 124.362 279.736 124.339 279.55 124.303C279.466 124.303 279.342 124.27 279.215 124.243L278.843 124.17C278.349 124.067 277.853 123.976 277.357 123.888C269.44 122.513 261.376 122.199 253.376 122.955C249.347 123.343 245.544 123.928 241.632 124.094C237.721 124.261 233.818 124.261 229.907 124.064C225.995 123.867 222.093 123.458 218.205 122.922C214.318 122.386 210.434 121.71 206.649 120.802H206.625C206.238 120.706 205.846 120.94 205.747 121.327C205.648 121.714 205.879 122.108 206.265 122.21C213.961 124.257 221.83 125.587 229.771 126.181C233.742 126.47 237.726 126.571 241.723 126.484C245.71 126.403 249.743 125.878 253.582 125.6C261.347 125.029 269.153 125.463 276.807 126.893C277.282 126.987 277.757 127.081 278.225 127.196L278.579 127.272C278.694 127.296 278.812 127.323 278.973 127.351C279.272 127.413 279.575 127.457 279.88 127.481C281.149 127.606 282.428 127.38 283.577 126.827C284.724 126.268 285.699 125.409 286.397 124.34C286.736 123.82 287.017 123.264 287.235 122.683C287.442 122.099 287.585 121.495 287.661 120.88C287.819 119.616 287.643 118.333 287.153 117.157C286.636 115.945 285.773 114.912 284.672 114.189C284.147 113.848 283.582 113.573 282.99 113.368C282.71 113.26 282.423 113.17 282.131 113.098C281.828 113.02 281.626 112.986 281.369 112.929C280.385 112.714 279.399 112.52 278.413 112.341C274.48 111.62 270.499 111.129 266.527 110.799C262.555 110.469 258.586 110.254 254.614 110.142C252.629 110.093 250.649 110.069 248.672 110.069C246.688 110.069 244.694 110.087 242.758 110.021L239.829 109.954C238.855 109.921 237.875 109.954 236.907 109.836L231.075 109.354L225.281 108.539L219.533 107.388L216.708 106.64C215.77 106.377 214.814 106.171 213.891 105.859L211.114 104.95L209.726 104.489L208.367 103.953L205.645 102.887L202.985 101.675C202.078 101.29 201.231 100.83 200.369 100.376C199.506 99.9213 198.632 99.4881 197.806 98.9731C196.117 98.005 194.478 96.9505 192.896 95.8137L191.717 94.9534L190.582 94.0446C189.835 93.4388 189.094 92.7815 188.443 92.1332L188.41 92.1029C188.131 91.8168 187.673 91.8114 187.387 92.0908C187.102 92.3702 187.096 92.8286 187.375 93.1147V93.1056Z" fill="#233940"/>
<path fill-rule="evenodd" clip-rule="evenodd" d="M112.214 68.0151C115.695 65.7092 119.328 63.6407 123.087 61.8234C124.025 61.3721 124.99 60.9722 125.939 60.5451L127.361 59.912L128.823 59.3516C129.797 58.9851 130.765 58.5943 131.745 58.2459L134.716 57.2796C138.681 56.0295 142.738 55.0906 146.85 54.4716C148.895 54.0959 150.967 53.9899 153.027 53.7688L156.131 53.6628C156.648 53.6628 157.166 53.6173 157.68 53.6234L159.229 53.6749C167.479 53.8476 175.71 55.7257 182.995 59.4152C186.626 61.3038 189.993 63.6637 193.008 66.4339C196.022 69.1659 198.609 72.3367 200.68 75.8395C202.743 79.2944 204.123 83.1137 204.746 87.09C205.333 91.0423 205.045 95.0754 203.902 98.9038C203.778 99.3885 203.6 99.858 203.439 100.328C203.279 100.797 203.116 101.282 202.916 101.715C202.542 102.61 202.098 103.474 201.588 104.299C199.516 107.636 196.475 110.261 192.872 111.82C191.975 112.205 191.049 112.522 190.104 112.768C189.166 113.026 188.206 113.2 187.236 113.286C183.352 113.653 179.322 112.744 175.662 111.139C173.819 110.318 172.032 109.291 170.186 108.243C169.217 107.675 168.206 107.184 167.161 106.774C166.56 106.55 165.933 106.405 165.294 106.344C164.934 106.312 164.571 106.319 164.211 106.365C163.427 106.497 162.7 106.861 162.124 107.41C161.991 107.543 161.885 107.685 161.767 107.828C161.652 107.962 161.551 108.107 161.465 108.261C161.136 108.812 160.88 109.404 160.705 110.021L160.484 110.884L160.324 111.657L160.003 113.202L158.706 119.396C157.849 123.537 157.06 127.715 156.53 131.943V131.983C156.458 132.481 156.767 132.955 157.25 133.091C158.385 133.383 159.534 133.613 160.693 133.779C161.837 133.955 162.983 134.082 164.136 134.155C166.441 134.31 168.755 134.261 171.051 134.006C173.355 133.761 175.626 133.265 177.822 132.525L179.458 131.937L181.041 131.21L181.815 130.844L182.568 130.404L184.081 129.526C184.404 129.317 184.508 128.892 184.318 128.558C184.129 128.223 183.712 128.094 183.367 128.263L183.3 128.299L181.86 129.093L181.144 129.49L180.39 129.817L178.878 130.462L177.317 130.977C175.218 131.624 173.055 132.038 170.867 132.213C168.674 132.395 166.47 132.395 164.278 132.213C163.183 132.113 162.088 131.983 161.005 131.798C159.934 131.625 158.874 131.394 157.828 131.107L158.566 132.243C159.171 128.111 160.012 124.01 160.938 119.908L162.348 113.744L162.699 112.199L162.871 111.427L163.056 110.763C163.322 109.909 163.743 109.185 164.193 109.033C164.593 108.788 165.403 108.921 166.247 109.233C167.153 109.612 168.029 110.06 168.867 110.572C170.664 111.629 172.519 112.747 174.506 113.68C176.514 114.619 178.622 115.326 180.79 115.786C182.988 116.26 185.242 116.416 187.484 116.249C188.615 116.163 189.735 115.978 190.833 115.695C191.934 115.416 193.012 115.054 194.058 114.613C196.145 113.732 198.09 112.547 199.83 111.096C201.569 109.632 203.074 107.909 204.292 105.989C204.897 105.023 205.424 104.01 205.869 102.96C206.111 102.436 206.28 101.915 206.474 101.394C206.667 100.873 206.852 100.352 206.994 99.8126C208.295 95.5347 208.614 91.0177 207.926 86.5992C207.232 82.219 205.682 78.019 203.364 74.2401C201.098 70.497 198.282 67.1169 195.011 64.2135C191.778 61.3071 188.176 58.8403 184.299 56.8767C176.5 53.0297 167.866 51.1909 159.286 51.1697L157.677 51.1455C157.142 51.1455 156.606 51.1909 156.071 51.2122L152.861 51.3788C150.743 51.6393 148.598 51.7907 146.508 52.2118C142.297 52.9121 138.149 53.9505 134.105 55.3167L131.079 56.3769C130.084 56.7586 129.107 57.1766 128.118 57.5886L126.641 58.1944L125.195 58.873C124.236 59.3334 123.262 59.7636 122.315 60.2452C118.53 62.186 114.879 64.38 111.388 66.8125C111.172 66.9575 111.05 67.207 111.067 67.467C111.084 67.7269 111.239 67.9579 111.472 68.0728C111.706 68.1877 111.983 68.1692 112.199 68.0242L112.214 68.0151Z" fill="#233940"/>
<path fill-rule="evenodd" clip-rule="evenodd" d="M39.7844 268.112C43.3041 259.815 47.5287 251.836 52.4116 244.263C52.9985 243.3 53.655 242.388 54.2842 241.452C54.9135 240.516 55.5427 239.586 56.1932 238.668L58.1868 235.942L59.1881 234.57L60.2288 233.24L62.3192 230.592L64.4853 228.002L65.5622 226.694L66.6846 225.434L68.9323 222.913C71.9858 219.624 75.1592 216.441 78.4527 213.365C81.7461 210.29 85.1525 207.348 88.6718 204.541C92.177 201.714 95.777 199.009 99.4718 196.426C103.16 193.812 114.513 186.345 114.985 186.002C115.221 185.83 115.457 185.672 115.693 185.491L116.398 184.924C118.234 183.379 119.777 181.515 120.954 179.423C122.129 177.363 134.806 165.48 136.267 160.269C137.79 155.031 139.705 149.914 141.994 144.963C143.123 142.467 144.324 140.001 145.57 137.554C146.816 135.106 148.123 132.707 149.4 130.186C151.941 125.216 154.21 120.03 155.798 114.586C157.386 109.143 158.306 103.436 158.013 97.6681C157.685 91.8719 156.029 86.2292 153.172 81.1771C151.732 78.6296 149.928 76.306 147.818 74.2796C145.674 72.2187 143.154 70.5888 140.397 69.4784C137.645 68.4167 134.734 67.8279 131.787 67.7366C128.897 67.6361 126.005 67.9007 123.18 68.5242C117.591 69.6475 112.214 71.6504 107.25 74.4584C102.317 77.2924 97.8268 80.8371 93.9236 84.9788C90.0449 89.1044 86.6917 93.6953 83.9404 98.6465C82.5635 101.103 81.3174 103.631 80.2073 106.219C79.1081 108.815 78.138 111.457 77.297 114.147C76.4518 116.835 75.745 119.565 75.1794 122.326C74.8769 123.689 74.656 125.113 74.3958 126.448L73.6426 130.495C73.4066 131.846 73.0648 133.179 72.7834 134.521C72.5021 135.863 72.1995 137.202 71.8426 138.526L70.814 142.509L69.6614 146.447C68.0632 151.7 66.1983 156.867 64.0738 161.929C59.8031 172.039 54.3673 181.615 47.8769 190.461C44.6185 194.864 41.0744 199.047 37.2674 202.984C35.3676 204.951 33.3911 206.836 31.338 208.64C30.3125 209.548 29.2688 210.418 28.2039 211.263C27.139 212.108 26.0379 212.944 24.9669 213.659L24.9246 213.686C24.4508 214.014 24.2728 214.63 24.4989 215.16C24.725 215.69 25.2927 215.987 25.8564 215.87C29.734 214.973 33.5587 213.861 37.3128 212.538C41.056 211.242 44.7367 209.786 48.3548 208.17C51.9851 206.568 55.5125 204.784 58.9763 202.863C62.4402 200.942 65.8254 198.88 69.0836 196.623C69.9064 196.069 70.7232 195.511 71.5037 194.914L73.8997 193.154C75.4486 191.919 77.0369 190.731 78.5253 189.416C81.5567 186.856 84.4403 184.126 87.1622 181.238C88.4994 179.768 89.8607 178.326 91.095 176.776C91.7212 176.006 92.3837 175.261 92.9797 174.47L94.7737 172.092C95.3787 171.311 95.9384 170.484 96.495 169.669L98.1649 167.203L99.7108 164.656C100.228 163.808 100.751 162.965 101.202 162.078C102.137 160.327 103.111 158.594 103.925 156.777L105.186 154.075C105.606 153.098 105.911 152.075 106.094 151.027C106.449 148.901 106.21 146.717 105.404 144.718C104.585 142.734 103.254 141.004 101.547 139.704C99.8448 138.385 97.8032 137.577 95.66 137.375C93.4957 137.185 91.3276 137.695 89.4735 138.829C88.5631 139.379 87.7334 140.053 87.0079 140.831C86.6298 141.219 86.3152 141.579 85.9884 141.943L85.0113 143.033C84.3639 143.766 83.7105 144.487 83.0328 145.193C82.3552 145.899 81.7017 146.62 81.018 147.314C75.5726 152.887 69.6886 158.091 63.1965 162.381C59.973 164.546 56.568 166.427 53.0197 168.003C49.4901 169.576 45.7631 170.66 41.9414 171.226C41.5437 171.28 41.2647 171.646 41.3182 172.044C41.3717 172.442 41.7374 172.721 42.135 172.668C46.097 172.11 49.9646 171.013 53.6308 169.409C57.2725 167.82 60.7697 165.917 64.0829 163.723C70.7384 159.388 76.7132 154.147 82.2765 148.54C82.9723 147.841 83.6439 147.114 84.3276 146.405C85.0113 145.696 85.6829 144.969 86.3424 144.233L87.3377 143.136C87.6705 142.77 88.0063 142.394 88.3148 142.082C88.9328 141.425 89.6394 140.857 90.4143 140.395C91.1724 139.932 92.0013 139.598 92.8678 139.404C93.7292 139.2 94.6187 139.14 95.4997 139.229C97.287 139.412 98.9855 140.1 100.398 141.213C101.829 142.315 102.941 143.779 103.622 145.454C104.285 147.124 104.475 148.944 104.17 150.715C104.012 151.605 103.752 152.473 103.396 153.302L102.152 155.935C101.36 157.71 100.398 159.4 99.4748 161.112C99.0301 161.975 98.5128 162.799 98.0046 163.626L96.492 166.11L94.8463 168.515C94.2987 169.318 93.7572 170.123 93.1521 170.887L91.3885 173.207C90.8046 173.983 90.1511 174.704 89.534 175.455C88.3239 176.969 86.9716 178.375 85.6587 179.808C82.9734 182.622 80.1301 185.281 77.1427 187.772C75.6785 189.053 74.1175 190.213 72.6049 191.407L70.2453 193.124C69.4648 193.706 68.66 194.251 67.8523 194.79C64.6456 196.992 61.3088 199.004 57.8963 200.876C54.4839 202.748 50.9958 204.487 47.4322 206.047C43.8685 207.607 40.2412 209.036 36.5595 210.288C32.8998 211.554 29.1732 212.618 25.3965 213.474L26.289 215.686C27.5202 214.868 28.6184 214.041 29.7316 213.165C30.8449 212.29 31.9128 211.396 32.9716 210.478C35.0832 208.639 37.1162 206.72 39.0705 204.723C42.9756 200.726 46.6137 196.476 49.9612 192C56.6166 183.016 62.2007 173.284 66.5999 163.002C68.7815 157.864 70.6999 152.617 72.3478 147.283L73.5125 143.267L74.5743 139.217C74.9434 137.872 75.2429 136.508 75.5454 135.145C75.8479 133.782 76.1868 132.419 76.4318 131.056L77.2123 126.945C77.4846 125.567 77.6933 124.255 77.9898 122.916C78.5456 120.257 79.2373 117.629 80.0621 115.041C80.8829 112.45 81.8268 109.902 82.8937 107.398C83.9742 104.906 85.186 102.473 86.5239 100.11C89.166 95.3758 92.3841 90.9883 96.1048 87.0477C99.8136 83.1362 104.076 79.7916 108.756 77.121C113.444 74.4897 118.519 72.6187 123.791 71.5776C126.373 71.0117 129.016 70.7756 131.657 70.8748C134.247 70.9604 136.804 71.4827 139.22 72.4197C141.604 73.3856 143.781 74.7994 145.633 76.5849C147.517 78.3976 149.127 80.4752 150.413 82.7523C153.024 87.3717 154.54 92.5297 154.845 97.8286C155.115 103.13 154.277 108.507 152.755 113.674C151.233 118.842 149.049 123.865 146.574 128.742C145.34 131.165 144.003 133.622 142.747 136.103C141.492 138.583 140.261 141.095 139.117 143.642C136.761 148.737 134.791 154.003 133.224 159.394C131.711 164.819 116.631 181.859 115 183.243L114.395 183.743C114.33 183.794 112.411 185.089 109.581 187.024C109.581 187.024 92.2807 198.942 87.4043 202.924C83.8748 205.797 80.4463 208.791 77.1185 211.905C73.7908 215.019 70.6002 218.265 67.5468 221.644L65.2869 224.207L64.1343 225.482L63.0453 226.797L60.8671 229.42L58.7737 232.119L57.7269 233.47L56.7226 234.851L54.7199 237.617C54.0664 238.55 53.4432 239.501 52.8049 240.443C52.1666 241.385 51.5162 242.321 50.9293 243.297C46.0372 250.983 41.8136 259.075 38.3051 267.485C34.806 275.893 32.0259 284.584 29.9948 293.463C29.9038 293.853 30.1455 294.243 30.5348 294.334C30.9241 294.425 31.3135 294.183 31.4046 293.793C33.4692 285.013 36.2715 276.421 39.7844 268.112Z" fill="#233940"/>
<path fill-rule="evenodd" clip-rule="evenodd" d="M185.591 178.529C186.41 179.155 187.262 179.737 188.144 180.271C187.235 179.781 186.379 179.198 185.591 178.529Z" fill="#FFB195"/>
<path fill-rule="evenodd" clip-rule="evenodd" d="M190.682 162.565C199.564 163.08 203.899 166.676 204.873 170.61C206.141 175.675 210.319 178.141 215.813 175.869C220.955 173.734 222.341 167.69 222.734 162.686C223.037 158.748 223.106 154.81 224.804 151.175C226.083 148.439 227.999 146.05 230.391 144.208C228.509 144.682 226.663 145.29 224.867 146.026C218.989 148.428 214.439 152.42 209.439 156.201C206.828 158.173 204.054 159.996 200.913 160.984C197.598 162.011 194.067 161.835 190.682 162.565Z" fill="#788CFF"/>
<path fill-rule="evenodd" clip-rule="evenodd" d="M368.047 138.91C368.225 140.59 331.435 140.093 328.007 139.571C315.276 137.629 303.061 133.14 292.082 126.369C291.479 125.996 290.843 125.605 290.138 125.59C289.348 125.572 288.63 126.021 287.9 126.33C285.889 127.179 283.351 126.873 281.828 125.305C279.606 123.015 280.206 119.541 279.44 116.702C278.572 113.484 276.06 110.635 273.645 108.457C269.617 104.817 264.298 99.7664 258.76 98.823C257.02 98.5196 253.366 97.3791 254.885 94.8795C255.099 94.5186 255.85 93.8269 256.067 93.472C256.872 92.1373 265.266 94.3821 266.686 95.4316C268.987 97.1455 270.63 98.28 272.089 99.3235C271.146 93.8421 268.899 90.3294 266.123 86.9047C265.04 85.5669 264.733 83.7044 266.065 82.3546C267.184 81.2261 269.484 80.9471 270.588 82.3C274.103 86.6344 277.252 91.2562 280.004 96.1172C280.38 96.7825 280.748 97.4529 281.108 98.1283C283.795 103.145 286.036 108.391 287.804 113.805C288.169 114.227 288.546 114.639 288.926 115.052C297.238 124 309.196 127.907 321.139 128.729C329.729 129.318 349.29 129.724 366.666 130.01C367.185 132.539 367.571 135.069 367.872 137.614C367.951 138.039 368.002 138.476 368.047 138.91Z" fill="#ED995A"/>
<path fill-rule="evenodd" clip-rule="evenodd" d="M368.557 155.22C368.518 156.476 368.457 157.741 368.385 159.015C368.104 163.935 367.592 168.962 366.932 174.128C366.76 175.514 366.57 176.906 366.377 178.314C365.496 184.623 362.934 190.666 358.966 196.414C353.635 196.526 348.329 194.964 343.393 192.908C336.295 189.944 329.587 186.364 322.2 184.111C316.078 182.233 309.789 180.961 303.422 180.31C298.372 183.492 289.414 182.849 284.454 181.114C276.314 178.262 270.036 172.077 266.698 164.126C262.306 153.643 263.656 138.203 253.432 131.062C251.276 129.545 251.897 126.066 254.403 125.326C255.609 124.968 256.921 125.268 258.021 125.872C262.761 128.478 266.077 133.456 269.355 137.605C269.973 138.391 270.627 139.14 271.312 139.862C271.369 138.285 271.495 136.704 271.613 135.142C271.866 132.215 272.144 129.127 271.746 126.181C271.357 125.832 271.082 125.372 270.959 124.862C270.557 123.329 270.161 121.792 269.771 120.251C269.609 119.657 269.638 119.026 269.855 118.449C269.568 117.95 269.285 117.444 269.008 116.932C265.52 110.499 262.61 102.715 255.817 99.096C252.422 97.2759 255.356 92.0585 258.748 93.8694C260.878 95.0223 262.805 96.5195 264.452 98.3012C265.441 98.1769 265.851 99.2295 267.069 99.7724C270.317 101.222 275.741 112.334 286.272 121.452C291.353 125.851 297.615 129.791 305.406 131.963C313.245 134.153 321.06 136.21 329.198 136.17C334.091 136.17 360.669 138.015 367.887 137.639C367.945 138.069 367.993 138.509 368.038 138.94C368.316 141.597 368.493 144.267 368.572 146.948C368.593 147.652 368.611 148.362 368.614 149.072C368.656 151.089 368.635 153.142 368.557 155.22Z" fill="#EDA671"/>
<path fill-rule="evenodd" clip-rule="evenodd" d="M277.052 151.86C274.224 148.632 272.403 144.931 271.022 141.015C270.676 140.02 270.356 139.016 270.06 138.003C270.63 138.737 271.182 139.477 271.719 140.233C272.329 128.412 269.406 116.678 263.328 106.543C263.76 106.497 264.197 106.551 264.606 106.701C265.267 106.962 265.81 107.456 266.135 108.09C269.799 114.722 272.573 121.813 274.384 129.179C275.94 135.406 277.161 142.289 281.512 147.261C284.219 150.346 279.775 154.969 277.052 151.86Z" fill="#ED995A"/>
<path fill-rule="evenodd" clip-rule="evenodd" d="M368.023 138.91C368.201 140.591 331.408 140.093 327.983 139.571C315.251 137.63 303.035 133.142 292.056 126.373C291.452 126 290.819 125.609 290.114 125.593C289.324 125.572 288.606 126.021 287.88 126.331C285.869 127.18 283.327 126.874 281.804 125.305C279.585 123.012 280.182 119.542 279.416 116.702C278.551 113.484 276.036 110.636 273.621 108.458C269.593 104.818 264.26 99.7699 258.736 98.8235C256.996 98.5201 253.339 97.3826 254.862 94.88C255.582 93.6849 256.321 93.06 257.753 93.0933C260.355 93.1831 262.915 93.7807 265.291 94.8527C267.793 95.9812 269.843 97.7314 272.06 99.3179C271.88 98.2609 271.634 97.2164 271.324 96.1905C270.425 94.5557 269.28 93.0709 267.929 91.789C266.096 90.0144 263.925 88.0852 263.732 85.3339C263.43 81.1326 268.384 78.8241 270.79 82.5674C270.805 82.5916 270.818 82.6169 270.829 82.6432C274.677 87.4118 278.421 92.5959 281.041 98.1501C283.716 103.813 285.341 110.056 289.242 115.07C296.461 124.35 309.926 127.962 321.112 128.721C329.702 129.306 349.264 129.716 366.639 130.004C367.155 132.537 367.544 135.061 367.845 137.609C367.927 138.04 367.975 138.476 368.023 138.91Z" fill="#ED995A"/>
<path fill-rule="evenodd" clip-rule="evenodd" d="M368.533 155.221C368.494 156.477 368.433 157.742 368.361 159.016C368.081 163.936 367.568 168.962 366.908 174.128C366.736 175.515 366.546 176.907 366.353 178.314C365.473 184.624 362.91 190.667 358.942 196.415C358.01 197.765 349.26 195.314 347.849 194.932C336.422 191.844 326.473 184.657 314.864 182.179C304.643 179.998 293.931 184.481 283.9 180.911C276.091 178.132 269.864 171.72 266.675 164.106C262.282 153.622 263.632 138.182 253.408 131.042C251.252 129.525 251.874 126.046 254.379 125.305C255.585 124.948 256.897 125.248 257.997 125.851C262.737 128.457 266.053 133.435 269.331 137.585C269.95 138.371 270.602 139.124 271.288 139.842C271.345 138.264 271.472 136.684 271.589 135.122C271.842 132.194 272.12 129.106 271.722 126.161C271.333 125.811 271.058 125.351 270.935 124.841C270.533 123.308 270.137 121.772 269.747 120.231C269.585 119.636 269.615 119.005 269.831 118.429C269.542 117.929 269.259 117.424 268.984 116.912C265.496 110.478 262.586 102.694 255.793 99.0755C252.398 97.2554 255.332 92.041 258.724 93.8489C260.153 94.6103 261.464 95.669 262.791 96.6124C264.229 97.6201 265.61 98.7078 266.928 99.8702C272.331 104.639 275.973 110.869 280.815 116.135C282.524 118.003 284.336 119.772 286.242 121.435C291.323 125.833 297.585 129.774 305.376 131.946C313.215 134.136 321.03 136.192 329.168 136.153C334.061 136.153 360.639 137.997 367.857 137.621C367.915 138.052 367.963 138.492 368.008 138.922C368.286 141.58 368.463 144.249 368.542 146.931C368.563 147.634 368.581 148.344 368.584 149.054C368.632 151.09 368.611 153.143 368.533 155.221Z" fill="#EDA671"/>
<path fill-rule="evenodd" clip-rule="evenodd" d="M277.025 151.86C274.197 148.632 272.376 144.931 270.995 141.015C270.651 140.02 269.855 138.892 269.557 137.888C270.127 138.622 270.615 138.722 271.152 139.477C271.755 127.647 269.376 116.693 263.286 106.546C263.718 106.5 264.155 106.554 264.564 106.704C265.225 106.965 265.768 107.459 266.093 108.093C269.757 114.725 272.531 121.816 274.342 129.182C275.898 135.409 277.119 142.292 281.47 147.264C284.195 150.346 279.739 154.969 277.025 151.86Z" fill="#ED995A"/>
<path fill-rule="evenodd" clip-rule="evenodd" d="M253.257 130.617C256.342 132.419 258.79 135.167 260.632 138.2C262.474 141.234 263.744 144.552 264.79 147.883C265.836 151.214 266.551 154.593 267.458 157.869C267.908 159.507 268.381 161.124 268.936 162.698C269.481 164.258 270.115 165.784 270.835 167.27C271.554 168.723 272.39 170.115 273.335 171.432C274.293 172.723 275.376 173.917 276.567 174.996C278.986 177.162 281.827 178.799 284.91 179.801C288.025 180.787 291.314 181.098 294.558 180.711C297.839 180.323 301.005 179.259 303.859 177.586C304.174 177.401 304.578 177.499 304.774 177.808C304.97 178.117 304.889 178.527 304.589 178.736C298.62 182.833 291.168 184.095 284.195 182.188C280.709 181.219 277.469 179.511 274.691 177.18C271.903 174.842 269.662 171.913 268.131 168.601C266.557 165.362 265.613 161.928 264.79 158.567C263.967 155.206 263.313 151.817 262.45 148.556C261.588 145.296 260.521 142.095 258.935 139.186C257.349 136.277 255.253 133.647 252.537 131.782C252.221 131.581 252.127 131.16 252.327 130.843C252.527 130.525 252.945 130.431 253.26 130.632L253.257 130.617Z" fill="#233940"/>
<path fill-rule="evenodd" clip-rule="evenodd" d="M259.236 128.142L258.29 127.289C257.968 127.021 257.915 126.544 258.169 126.21C258.424 125.877 258.895 125.805 259.236 126.049L259.342 126.121C261.526 127.599 263.606 129.227 265.568 130.993C267.538 132.76 269.388 134.657 271.107 136.672C272.77 138.733 274.27 140.923 275.593 143.221C276.943 145.486 278.127 147.847 279.136 150.286C279.285 150.617 279.152 151.008 278.831 151.177C278.51 151.345 278.115 151.232 277.93 150.92C276.528 148.748 275.078 146.627 273.555 144.571C272.032 142.514 270.392 140.579 268.776 138.613C267.16 136.647 265.547 134.67 263.801 132.807C262.055 130.945 260.252 129.122 258.374 127.347L259.432 126.188L260.222 127.189C260.484 127.463 260.475 127.898 260.203 128.161C259.93 128.424 259.498 128.416 259.236 128.142Z" fill="#233940"/>
<path fill-rule="evenodd" clip-rule="evenodd" d="M270.693 139.24C270.916 138.379 271.024 137.491 271.013 136.601C271.013 136.174 270.962 135.691 270.932 135.215L270.826 133.801C270.672 131.918 270.47 130.04 270.202 128.174C269.697 124.458 268.829 120.8 267.612 117.254C266.993 115.493 266.27 113.771 265.447 112.097C264.654 110.445 263.704 108.873 262.61 107.405C262.073 106.69 261.482 106.018 260.843 105.393C260.207 104.787 259.501 104.18 258.769 103.604C258.036 103.027 257.276 102.412 256.535 101.744C255.748 101.063 255.04 100.295 254.424 99.454C253.742 98.5221 253.296 97.4373 253.125 96.2932C253.027 95.6284 253.091 94.9497 253.312 94.3154C253.432 93.9724 253.6 93.6486 253.812 93.3538C253.921 93.2112 254.047 93.0838 254.171 92.9504C254.288 92.8198 254.42 92.7047 254.566 92.6076C254.704 92.5075 254.843 92.4044 254.985 92.3043L255.419 92.0919C255.697 91.9638 255.987 91.8623 256.284 91.7886C256.563 91.7137 256.846 91.658 257.132 91.6217C257.417 91.5734 257.705 91.548 257.994 91.5459C259.098 91.5516 260.192 91.7571 261.223 92.1526C262.165 92.5199 263.085 92.9412 263.979 93.4145L265.272 94.1698C265.707 94.4155 266.101 94.7189 266.521 94.9888C268.136 96.1233 269.654 97.3905 271.061 98.7776C276.639 104.298 280.619 110.881 286.085 115.801C288.816 118.301 291.763 120.551 294.889 122.526C298.034 124.503 301.321 126.239 304.725 127.719C311.601 130.66 318.811 132.738 326.192 133.905C333.585 135.118 341.108 135.591 348.642 135.691C356.177 135.791 363.736 135.546 371.3 135.303C371.663 135.303 371.961 135.59 371.978 135.954C371.994 136.318 371.724 136.631 371.364 136.665C363.811 137.141 356.24 137.62 348.636 137.669C341.032 137.718 333.401 137.417 325.821 136.343C318.2 135.309 310.74 133.304 303.621 130.377C300.045 128.908 296.595 127.146 293.306 125.108C290.001 123.062 286.901 120.696 284.053 118.043L281.967 115.995L279.989 113.838C278.723 112.367 277.532 110.86 276.356 109.361C274.013 106.361 271.719 103.391 269.135 100.771C267.858 99.4677 266.476 98.2735 265.004 97.2002C264.63 96.9515 264.274 96.6693 263.885 96.4418L262.734 95.7472C261.958 95.3246 261.16 94.9449 260.343 94.6097C259.607 94.3109 258.824 94.1465 258.03 94.1243C257.661 94.1329 257.294 94.1807 256.936 94.2669C256.773 94.3033 256.614 94.3561 256.462 94.4246L256.254 94.5156L256.091 94.6309C256.036 94.6587 255.987 94.6992 255.95 94.7492C255.914 94.7917 255.865 94.8281 255.829 94.8705C255.765 94.9644 255.713 95.0664 255.675 95.1739C255.58 95.4408 255.554 95.7281 255.6 96.0081C255.709 96.7546 255.995 97.464 256.432 98.0768C256.93 98.7762 257.504 99.4181 258.142 99.9909C258.799 100.598 259.517 101.204 260.252 101.811C260.988 102.418 261.733 103.064 262.444 103.786C263.15 104.502 263.8 105.272 264.389 106.088C265.536 107.691 266.525 109.402 267.344 111.196C268.165 112.958 268.881 114.767 269.487 116.614C270.653 120.304 271.449 124.101 271.863 127.95C272.086 129.861 272.237 131.775 272.34 133.689L272.409 135.124C272.409 135.606 272.457 136.067 272.451 136.592C272.436 137.608 272.286 138.617 272.005 139.592C271.909 139.957 271.538 140.174 271.176 140.078C270.814 139.981 270.598 139.608 270.693 139.243V139.24Z" fill="#233940"/>
<path fill-rule="evenodd" clip-rule="evenodd" d="M266.077 90.8306C265.45 90.4109 264.933 89.8447 264.57 89.1804C264.225 88.5672 263.954 87.9144 263.765 87.236C263.368 85.8814 263.265 84.4569 263.463 83.0589C263.573 82.2898 263.837 81.551 264.238 80.887C264.473 80.5175 264.766 80.1896 265.107 79.9163C265.465 79.6366 265.875 79.4304 266.313 79.3096C266.734 79.1919 267.172 79.1427 267.609 79.164C267.814 79.164 268.013 79.2065 268.212 79.2308C268.425 79.2685 268.634 79.3212 268.839 79.3885C269.597 79.6598 270.288 80.0899 270.868 80.6504C271.372 81.13 271.838 81.6482 272.261 82.2005C272.662 82.704 273.06 83.2106 273.452 83.7172C274.233 84.7425 275.005 85.7738 275.741 86.8295C277.212 88.9529 278.635 91.0763 279.962 93.2907C282.594 97.7015 284.927 102.286 286.945 107.014C288.982 111.725 290.694 116.572 292.07 121.52C292.171 121.872 291.978 122.242 291.631 122.357C291.285 122.472 290.91 122.291 290.783 121.947C289.852 119.575 288.884 117.229 287.879 114.91C286.857 112.598 285.805 110.305 284.68 108.048C283.556 105.791 282.374 103.568 281.138 101.375L277.36 94.8195C276.081 92.6506 274.806 90.4817 273.44 88.3796C272.756 87.327 272.059 86.2835 271.33 85.2551C270.663 84.2538 269.94 83.2926 269.162 82.3764C268.85 82.0272 268.47 81.7463 268.046 81.5513C267.948 81.5131 267.847 81.4817 267.745 81.4573L267.413 81.3997C267.218 81.3765 267.021 81.3837 266.828 81.4209C266.46 81.4975 266.136 81.715 265.924 82.0276C265.645 82.442 265.451 82.9081 265.354 83.3987C265.118 84.5197 265.118 85.6781 265.354 86.7991C265.464 87.3602 265.64 87.9061 265.878 88.4251C266.08 88.9035 266.39 89.3282 266.783 89.6657L266.822 89.6991C267.094 89.9263 267.146 90.3259 266.941 90.6156C266.736 90.9053 266.344 90.9871 266.041 90.8033L266.077 90.8306Z" fill="#233940"/>
<defs>
<linearGradient id="paint0_linear" x1="340.044" y1="281.503" x2="340.044" y2="29.7284" gradientUnits="userSpaceOnUse">
<stop stop-color="#438EFF"/>
<stop offset="1" stop-color="#6ACCFF"/>
</linearGradient>
</defs>
</svg>
