<svg width="323" height="249" viewBox="0 0 323 249" fill="none" xmlns="http://www.w3.org/2000/svg">
<g opacity="0.763114">
<path opacity="0.215541" fill-rule="evenodd" clip-rule="evenodd" d="M315.733 194.592C315.435 195.118 315.123 195.636 314.806 196.151C296.554 225.827 250.663 241.785 218.331 246.521C156.87 255.527 86.2389 240.625 44.5611 191.478C14.7396 156.297 -15.8083 86.5198 9.27141 41.5271C35.5543 -5.64711 109.069 -5.35251 154.036 7.0918C185.835 15.8927 212.185 37.5593 235.797 59.7815L239.775 63.5294C250.291 73.4416 260.869 83.2941 272.141 92.3486C277.132 96.3724 282.407 100.829 287.562 105.639C312.519 128.977 335.032 160.884 315.733 194.592Z" fill="url(#paint0_linear)"/>
<path fill-rule="evenodd" clip-rule="evenodd" d="M61.7305 123.333C62.4585 122.793 63.2103 122.28 63.9859 121.793L63.9487 121.196L64.6405 121.396C65.4595 121.636 71.5806 118.242 72.6571 117.888C76.2775 116.703 79.9734 115.76 83.7202 115.063C97.743 112.455 112.119 113.656 126.161 115.451C139.911 117.219 153.729 118.775 167.398 120.971C187.194 124.156 205.718 126.318 225.723 124.082C246.4 121.769 267.149 119.283 288 119.899C287.735 115.916 286.881 111.993 285.465 108.256C281.398 97.5656 272.854 89.1078 263.144 83.2711C251.488 76.267 238.086 71.6778 224.73 69.7189C210.149 67.5844 199.213 65.8134 184.529 64.5844C169.067 63.2908 149.723 64.4951 134.205 64.8647C119.274 65.2189 104.112 66.032 89.3448 68.4283C77.1773 70.4026 65.9404 75.3954 59.5278 86.3419C53.6612 96.3551 53.5185 108.789 58.9662 119.021C59.774 120.527 60.6982 121.969 61.7305 123.333Z" fill="#96DCFF"/>
<path fill-rule="evenodd" clip-rule="evenodd" d="M266.325 109C250.648 111.276 234.079 118.136 220.186 131.904C186.671 165.134 78 141.299 78 141.299C78 141.299 104.687 186.928 186.138 195.355C185.617 195.491 185.099 195.643 184.578 195.795C185.239 197.476 185.707 199.226 185.973 201.012C186.3 200.975 186.629 200.96 186.958 200.965C189.4 201.015 191.921 202.533 192.523 204.881C193.056 206.977 191.921 209.282 190.102 210.475C188.284 211.669 185.926 211.858 183.798 211.363C181.671 210.868 179.744 209.739 177.988 208.468C177.052 207.794 176.144 207.064 175.077 206.613C174.011 206.161 172.735 206.056 171.724 206.613C171.078 206.996 170.625 207.631 170.477 208.363C169.921 210.837 171.437 211.388 172.414 212.445C173.037 213.113 173.452 214.146 172.676 214.919C172.237 215.333 171.612 215.489 171.029 215.331C168.571 214.712 168.056 211.731 165.789 210.862C164.269 210.28 162.641 211.573 163.062 213.098C163.905 216.138 167.688 217.737 170.324 218.89C173.297 220.176 176.431 221.062 179.641 221.525C186.155 222.434 192.786 222.035 199.142 220.353C201.768 219.715 204.297 218.73 206.659 217.424L206.846 217.319C208.362 216.425 209.847 215.238 210.383 213.577C210.92 211.916 210.071 209.727 208.34 209.399C206.78 209.09 205.386 210.302 204.167 211.313C199.831 214.919 193.967 217.115 188.449 215.875C192.701 215.105 197.133 214.258 200.539 211.623C203.237 209.532 205.109 206.297 205.143 202.908C205.143 202.739 205.143 202.571 205.143 202.404C205.048 200.915 205.578 199.454 206.608 198.367C207.638 197.28 209.075 196.663 210.58 196.664H212.741C247.445 196.664 272.042 191.601 289.138 184.036C289.404 183.61 289.662 183.18 289.915 182.744C306.075 154.814 287.223 128.354 266.325 109Z" fill="url(#paint1_linear)"/>
<path fill-rule="evenodd" clip-rule="evenodd" d="M194 65.6884H193.95C182.712 64.971 177.051 65.3681 171.86 66.7389L171.633 66.7997C169.493 67.3698 167.41 68.1128 165.037 69L139 60.1701C174.536 46.6226 188.714 58.889 192.719 63.834C193.201 64.4109 193.63 65.0316 194 65.6884Z" fill="#FFAB91"/>
<path fill-rule="evenodd" clip-rule="evenodd" d="M194 64.8479H193.951C193.085 64.7234 180.657 63.0543 172.309 65.8947C172.201 65.9266 172.099 65.9649 172 66L172.09 65.9553C172.798 65.6362 177.964 63.4245 192.748 63C193.219 63.5749 193.639 64.1935 194 64.8479Z" fill="#FF9E80"/>
<path fill-rule="evenodd" clip-rule="evenodd" d="M64.1989 123.496L64.1761 123C63.7746 123.366 63.3844 123.752 63 124.15C63 124.359 63.0171 124.544 63.0285 124.764C63.041 125.037 63.1437 125.286 63.3067 125.44C63.4697 125.593 63.6749 125.635 63.8629 125.552L63.9739 125.729C64.5064 126.544 65.3693 125.335 64.8282 124.548C64.6204 124.181 64.4068 123.843 64.1989 123.496Z" fill="#96DCFF"/>
<path fill-rule="evenodd" clip-rule="evenodd" d="M206.009 105.166C206.513 106.566 187.195 110.845 185.457 111.222C173.111 113.874 162.016 109.389 151.348 103.19C144.285 99.0788 136.669 94.6815 130.877 88.8495C129.363 87.3267 128.015 85.6471 126.857 83.8391C125.754 82.1304 124.857 80.2971 124.185 78.3775C123.182 75.6064 122.808 72.6468 123.092 69.7135C123.441 66.3992 127.635 65.254 130.105 63.7291C130.195 63.6793 130.279 63.6233 130.363 63.5672C131.039 63.1253 131.721 62.6865 132.412 62.2664C136.933 59.5153 141.863 57.3494 147.209 57.0382C154.231 56.6274 161.817 59.5278 165.13 66.0071C165.858 65.7301 166.459 66.8131 165.724 67.2021C159.167 70.6565 155.598 78.2219 157.731 85.4325C160.095 93.3931 167.341 96.39 174.795 98.0176C184.635 100.159 199.934 101.845 209.982 101.783C210.328 103.14 205.529 103.828 206.009 105.166Z" fill="#FFAB91"/>
<path fill-rule="evenodd" clip-rule="evenodd" d="M288.921 125.453C288.75 127.836 288.3 130.192 287.582 132.471C285.693 138.506 279.984 144.177 272.774 149.134C260.314 157.701 243.365 164.138 233.85 166.658C223.574 169.349 213.093 171.187 202.512 172.153C184.253 173.844 163.965 173.181 143.378 168.543C117.701 162.763 91.5567 150.803 68.2833 129.515C68.2833 129.515 57.5692 119.041 58.0134 109.49C58.759 93.573 73.1356 75.9474 92.3924 82.3469C99.7488 85.8005 106.905 89.6632 113.827 93.9167C125.436 101.038 161.598 128.18 217.408 97.0313C233.272 88.1767 254.34 81.0218 270.904 92.2356C281.987 99.7434 289.881 112.158 288.921 125.453Z" fill="url(#paint2_linear)"/>
<path fill-rule="evenodd" clip-rule="evenodd" d="M211 80.64C211 80.64 216.426 66.4045 234.259 66.0078C248.863 65.6806 257 75.7727 257 83.3417C257 99.0159 224.199 88.6209 224.199 88.6209L211 80.64Z" fill="#FFAB91"/>
<path fill-rule="evenodd" clip-rule="evenodd" d="M119.484 116C119.688 115.351 119.861 114.683 120 114C119.24 114.548 118.475 115.514 119.484 116Z" fill="#40AEFF"/>
<path fill-rule="evenodd" clip-rule="evenodd" d="M202 172.157C183.772 173.839 163.518 173.18 142.967 168.566C136.727 162.373 131.509 155.243 127.505 147.437C123.6 139.795 120.909 131.51 120.062 122.957C120.043 122.754 120.022 122.544 120 122.341C120.741 120.859 121.489 119.372 122.242 117.893C123.371 115.676 124.472 113.236 125.88 111.089C126.295 111.002 126.683 110.818 127.012 110.55C126.612 107.322 127.126 103.774 130.873 103.087C133.108 102.665 135.441 103.864 137.428 104.711C140.33 105.955 143.152 107.378 145.876 108.97C146.496 109.324 146.17 110.153 145.538 110.202C142.747 110.436 139.68 110.698 137.304 112.309C137.178 112.393 137.057 112.482 136.941 112.574C134.461 114.502 133.874 118.029 135.437 120.751C138.492 126.08 142.26 131.104 146.006 134.686C153.068 141.412 160.683 147.541 168.771 153.009C176 157.937 183.635 161.688 191.493 165.461C194.905 167.091 198.245 168.902 201.107 171.372C201.398 171.615 201.699 171.874 202 172.157Z" fill="black" fill-opacity="0.0793988"/>
<path fill-rule="evenodd" clip-rule="evenodd" d="M288 127.382C287.829 129.759 287.381 132.108 286.664 134.382C284.78 140.4 279.085 146.057 271.892 151C271.374 147.431 272.202 143.065 271.523 140.088C270.68 136.383 268.66 132.773 265.189 130.93C261.03 128.719 256.06 129.54 251.653 130.411C243.577 132.008 235.672 132.928 227.438 132.088C223.244 131.64 219.097 130.83 215.043 129.667C212.018 128.815 203.661 126.15 199 123.581C208.359 118.573 223.9 115.226 233.193 109.995C241.126 105.54 249.406 101.124 258.477 99.5712C264.944 98.4719 272.533 98.4256 276.612 104.394C279.004 107.896 280.594 112.079 282.441 115.887L288 127.382Z" fill="black" fill-opacity="0.0793988"/>
<path fill-rule="evenodd" clip-rule="evenodd" d="M132.832 86.8832C131.835 88.5227 130.459 89.8979 128.82 90.8927C122.681 94.5978 115.303 92.6856 108.916 90.7075C108.937 90.9662 108.822 91.217 108.611 91.3686C108.401 91.5202 108.127 91.5505 107.889 91.4485C106.417 90.786 104.942 90.1078 103.473 89.4139C97.4879 86.588 91.6374 83.3665 86.9301 78.8357C86.2828 78.2078 85.6564 77.5599 85.0509 76.8922C84.7377 76.5593 85.9498 74.4431 86.4916 74.3803C98.7063 72.6439 102.819 59.5414 105.556 49.3117C105.609 49.0878 105.779 48.9107 106.001 48.8502C105.935 48.6177 106 48.3679 106.17 48.1968C106.34 48.0257 106.589 47.9598 106.821 48.0244C119.12 51.6038 131.748 61.7895 134.586 74.8701C134.672 75.2636 134.744 75.6603 134.802 76.0601C135.353 79.7777 134.771 83.7433 132.832 86.8832Z" fill="#FFAB91"/>
<path fill-rule="evenodd" clip-rule="evenodd" d="M182 99.6252C182 99.6252 196.214 100.356 211.824 79.5012C217.874 71.4222 229.279 73.0492 235.394 79.1733C241.51 85.2973 243 91.6899 243 91.6899L201.989 114L196.285 109.103C196.285 109.103 198.025 103.163 182 99.6252Z" fill="url(#paint3_linear)"/>
<path fill-rule="evenodd" clip-rule="evenodd" d="M151.962 98.193C150.499 93.7159 147.048 90.5709 143.578 87.509C139.939 84.2961 137.471 80.6762 136.385 75.9493C135.264 71.0683 134.853 66.0608 131.537 62C130.837 62.4163 130.153 62.851 129.471 63.2889C129.386 63.3413 129.298 63.3999 129.211 63.4492C132.492 67.7444 135.286 72.5206 133.462 77.6668C131.999 79.3195 129.716 79.5908 127.628 79.2609C126.121 78.9784 124.648 78.5433 123.232 77.9628C122.084 77.5075 120.913 77.1122 119.722 76.7788C115.267 75.6348 112.023 77.3091 108.29 79.5261C106.001 80.8828 103.699 81.9188 100.952 81.7955C97.9911 81.6629 95.1307 80.6022 92.3362 79.7173L86 77.71C90.7098 82.1593 96.5813 85.3106 102.585 88.098C108.701 82.2395 117.929 81.259 125.923 83.3742L126.369 83.4975C128.31 84.0483 130.2 84.7569 132.021 85.6158C138.979 88.8472 145.023 93.9688 150.813 98.8406C151.309 99.2322 152.194 98.8591 151.962 98.193Z" fill="#FF9E80"/>
<path fill-rule="evenodd" clip-rule="evenodd" d="M261.692 108.334C261.692 108.334 288.752 131.924 286.253 167.673C286.253 167.673 280.575 180.318 290.6 182.027C300.625 183.736 307.338 187.811 313.752 191.59C320.166 195.369 322.384 195.817 320.163 184.633C317.941 173.448 308.172 173.448 305.509 145.26C302.846 117.072 300.43 68.8987 255.902 76.8804L242 98.2851L261.692 108.334Z" fill="#FFAB91"/>
<path fill-rule="evenodd" clip-rule="evenodd" d="M122.668 34.25C115.069 38.9065 111.664 47.3915 108.625 55.4018L108.336 56.1631C108.285 56.2873 108.241 56.4115 108.193 56.5325C107.38 58.676 106.535 60.7845 105.605 62.8262C105.505 63.0512 105.4 63.2752 105.287 63.4982C104.307 65.5776 103.181 67.5849 101.918 69.5052C101.337 70.3938 100.721 71.257 100.079 72.0946C98.9658 73.5551 97.754 74.9375 96.4524 76.232C95.542 77.208 94.4037 77.9414 93.1401 78.366C92.8225 78.4742 92.5049 78.5666 92.1461 78.659C90.7012 79.0425 89.19 79.1034 87.7191 78.8373C84.4703 78.2003 81.955 75.8625 80.2052 73.1552C77.9822 69.7027 75.956 65.8615 75.2605 61.9598C74.7921 59.5585 74.9574 57.076 75.7401 54.7585C80.2941 41.7316 95.541 37.0751 107.676 41.496C108.111 41.652 108.539 41.8145 108.946 41.9992L109.152 42.0852C112.606 38.343 116.788 35.3502 121.439 33.2913L121.96 33.062C122.001 33.0442 122.044 33.0303 122.087 33.0206C122.156 33.0033 122.226 32.9968 122.297 33.0015C122.449 33.004 122.596 33.0591 122.713 33.1575C122.9 33.2803 123.009 33.4925 122.999 33.7164C122.99 33.9403 122.865 34.1429 122.668 34.25Z" fill="url(#paint4_linear)"/>
<path fill-rule="evenodd" clip-rule="evenodd" d="M261.578 109.219L261.434 109.46C250.676 127.218 222.444 136.54 177.153 112.567C177.1 112.542 177.049 112.514 177 112.484C193.532 110.603 209.128 103.397 223.243 94.5686C230.8 89.8488 238.096 84.6194 246.244 80.9962C249.286 79.6595 252.467 78.6548 255.729 78C258.599 80.6904 270.873 93.5493 261.578 109.219Z" fill="url(#paint5_linear)"/>
<path fill-rule="evenodd" clip-rule="evenodd" d="M228.737 169.377C213.099 173.642 196.905 175.57 180.691 175.097C164.495 174.632 148.405 171.82 132.941 167.107C117.477 162.394 102.605 155.806 88.5951 147.8C81.5405 143.897 74.7631 139.215 69.0665 133.394C66.176 130.493 63.6581 127.25 61.5696 123.74C59.4473 120.192 58.0119 116.285 57.3369 112.217C56.7015 108.114 56.9671 103.925 58.1155 99.9327L58.617 98.4511L58.8724 97.7118L59.1838 96.9972C59.3987 96.5228 59.6105 96.0454 59.8348 95.5741L60.6072 94.2157C60.738 93.9909 60.8595 93.7598 60.9996 93.5411L61.445 92.8974C61.7565 92.4723 62.0337 92.0349 62.3452 91.6191L63.3449 90.4178C63.5162 90.2206 63.6564 90.0081 63.8557 89.8263L64.4039 89.2688C65.8519 87.7701 67.4614 86.4325 69.2035 85.2799C70.0788 84.7106 70.9844 84.1883 71.9163 83.7151C72.3866 83.4871 72.8507 83.2253 73.3241 83.0282L74.7787 82.4337C75.2644 82.2383 75.7603 82.0687 76.2643 81.9254L77.015 81.6913C77.2626 81.606 77.5153 81.536 77.7718 81.4819C78.7905 81.2235 79.8245 81.028 80.8677 80.8966L81.6495 80.795L82.0419 80.7457L82.4375 80.7303L84.0197 80.6687C84.1505 80.6687 84.2844 80.6687 84.4153 80.6687L84.8108 80.6903L85.6019 80.7334C86.1283 80.7734 86.6609 80.7703 87.1779 80.8597C89.2567 81.1107 91.3022 81.5816 93.2794 82.2643C95.2365 82.9332 97.1432 83.7381 98.9854 84.673C102.651 86.5212 106.059 88.7452 109.422 90.9383C112.786 93.1315 116.147 95.2507 119.604 97.2344C123.061 99.2181 126.624 101.008 130.247 102.659C131.153 103.075 132.072 103.45 132.984 103.848L134.355 104.436L135.747 104.975C136.681 105.329 137.597 105.711 138.535 106.041L141.353 107.017C141.821 107.187 142.288 107.325 142.774 107.476L144.2 107.908L145.627 108.339C146.1 108.487 146.586 108.594 147.066 108.724L149.953 109.466L152.865 110.082C160.643 111.699 168.626 112.13 176.536 111.361C184.425 110.557 192.165 108.484 199.584 105.6C207.003 102.717 214.098 99.0302 220.922 94.9026C227.746 90.7751 234.296 86.0653 241.519 82.2735C243.329 81.3248 245.157 80.4408 247.066 79.6337C248.969 78.8422 250.923 78.1774 252.915 77.6439C256.911 76.5716 261.031 76.0197 265.171 76.0021C269.348 75.9575 273.501 76.6287 277.446 77.9858C279.429 78.6877 281.321 79.6182 283.084 80.758C284.836 81.8948 286.468 83.2033 287.955 84.6638C290.872 87.5875 293.324 90.9316 295.227 94.5823C297.152 98.1924 298.588 101.993 299.843 105.825C301.098 109.657 302.073 113.566 302.936 117.484C303.799 121.402 304.493 125.348 305.138 129.297C306.403 137.198 307.318 145.136 308.253 153.04L308.433 154.521L308.636 155.972C308.792 156.936 308.947 157.897 309.175 158.846C309.601 160.749 310.16 162.62 310.847 164.446C312.205 168.108 314.083 171.592 316.027 175.067C316.519 175.938 316.992 176.813 317.494 177.648C317.995 178.483 318.518 179.373 319.017 180.254C320.042 182.02 320.954 183.848 321.748 185.728C322.152 186.693 322.479 187.688 322.726 188.703C323.023 189.8 323.079 190.947 322.891 192.067C322.761 192.717 322.463 193.323 322.025 193.826C321.558 194.315 320.965 194.671 320.309 194.854C319.68 195.026 319.017 195.046 318.378 194.913C317.801 194.793 317.244 194.592 316.724 194.315C315.783 193.805 314.898 193.196 314.086 192.501L312.934 191.577L311.76 190.693C310.167 189.549 308.493 188.519 306.751 187.613C303.262 185.784 299.52 184.472 295.645 183.719C293.711 183.337 291.658 183.082 289.634 182.392C288.583 182.05 287.598 181.536 286.721 180.87C285.802 180.166 285.09 179.231 284.66 178.162C284.268 177.1 284.131 175.962 284.261 174.839C284.375 173.796 284.583 172.765 284.884 171.758C285.158 170.782 285.454 169.839 285.684 168.903C285.915 167.967 286.036 167.018 286.189 166.051C286.427 164.109 286.541 162.154 286.531 160.198C286.496 158.241 286.354 156.287 286.105 154.346C285.831 152.402 285.482 150.468 285.015 148.555C284.547 146.642 284.002 144.748 283.351 142.884C280.721 135.415 277.005 128.364 272.319 121.954C267.648 115.547 262.132 109.694 255.734 104.978C254.134 103.804 252.47 102.716 250.751 101.719C249.031 100.741 247.247 99.8782 245.409 99.138C243.575 98.4183 241.67 97.8888 239.725 97.5578C237.797 97.2225 235.827 97.1892 233.888 97.4593C233.579 97.5069 233.289 97.2973 233.241 96.991C233.192 96.6848 233.404 96.398 233.714 96.3504C235.77 96.0492 237.862 96.07 239.912 96.412C241.943 96.744 243.933 97.2839 245.852 98.0229C247.745 98.7697 249.584 99.6423 251.358 100.635C253.127 101.645 254.84 102.75 256.488 103.943C263.047 108.724 268.685 114.629 273.469 121.113C278.282 127.609 282.103 134.77 284.809 142.367C285.485 144.267 286.036 146.211 286.538 148.164C287.039 150.116 287.394 152.113 287.684 154.112C287.95 156.119 288.105 158.14 288.148 160.164C288.167 162.194 288.057 164.223 287.818 166.239C287.662 167.24 287.55 168.253 287.291 169.273C287.033 170.292 286.749 171.235 286.488 172.18C285.961 174.05 285.594 175.951 286.223 177.519C286.551 178.312 287.089 179.002 287.78 179.518C288.509 180.06 289.325 180.476 290.194 180.75C291.991 181.366 293.96 181.606 295.975 181.982C300.023 182.748 303.935 184.097 307.586 185.986C309.411 186.93 311.165 188.003 312.834 189.196L314.08 190.12L315.27 191.072C315.983 191.68 316.758 192.213 317.584 192.661C318.375 193.074 319.176 193.253 319.814 193.059C320.132 192.967 320.42 192.796 320.652 192.563C320.867 192.3 321.011 191.989 321.072 191.657C321.196 190.802 321.138 189.932 320.904 189.1C320.675 188.179 320.374 187.277 320.004 186.402C319.238 184.604 318.359 182.855 317.372 181.166C316.883 180.306 316.376 179.459 315.859 178.603C315.342 177.747 314.849 176.85 314.354 175.982C312.389 172.498 310.442 168.934 309.006 165.111C308.285 163.203 307.698 161.247 307.25 159.259C307.022 158.264 306.842 157.263 306.674 156.262L306.456 154.752L306.269 153.268C305.275 145.351 304.341 137.453 303.051 129.614C302.403 125.699 301.7 121.79 300.824 117.931C299.949 114.071 298.993 110.23 297.75 106.484C296.508 102.739 295.103 99.0579 293.256 95.6203C291.451 92.1802 289.129 89.0303 286.369 86.2779C283.638 83.5599 280.334 81.4712 276.692 80.1604C272.99 78.9125 269.098 78.309 265.187 78.377C261.258 78.4066 257.349 78.943 253.56 79.9725C251.667 80.4794 249.811 81.1113 248.004 81.8638C246.21 82.6308 244.419 83.4995 242.672 84.4235C235.667 88.1445 229.142 92.8204 222.212 97.0065C215.282 101.193 208.065 104.932 200.484 107.886C192.903 110.84 184.949 112.968 176.798 113.8C168.639 114.593 160.405 114.149 152.382 112.482L149.389 111.838L146.43 111.068C145.938 110.932 145.44 110.821 144.954 110.667L143.493 110.221L142.035 109.774C141.546 109.629 141.061 109.466 140.584 109.3L137.703 108.293C136.744 107.951 135.806 107.559 134.859 107.193L133.439 106.635L132.041 106.019C131.106 105.61 130.172 105.222 129.238 104.787C125.547 103.093 121.949 101.217 118.417 99.2427C114.885 97.2683 111.469 95.0597 108.139 92.8358C104.81 90.6118 101.455 88.4556 97.9451 86.6752C96.2049 85.7848 94.4033 85.017 92.5537 84.3773C90.7247 83.7397 88.8315 83.2987 86.9069 83.0621C79.273 82.1195 71.3059 85.2183 65.983 90.7627L65.4753 91.2741C65.304 91.4435 65.1639 91.6375 65.005 91.8193L64.0706 92.922C63.781 93.304 63.5194 93.7044 63.2422 94.0925L62.831 94.6808C62.7002 94.8811 62.5912 95.0936 62.4697 95.2969L61.7565 96.529L61.1616 97.8289L60.8501 98.4788L60.6197 99.1534L60.1556 100.503C59.0771 104.203 58.8179 108.091 59.3956 111.9C60.0194 115.718 61.3577 119.388 63.3418 122.721C65.3355 126.092 67.7415 129.208 70.5054 131.998C73.2729 134.82 76.2756 137.406 79.4817 139.73C81.093 140.902 82.7375 142.013 84.4153 143.063C86.0878 144.125 87.8413 145.108 89.5637 146.115C103.43 154.096 118.143 160.676 133.461 165.392C148.779 170.107 164.707 172.941 180.741 173.465C196.801 174.009 212.853 172.183 228.369 168.047C243.883 163.922 258.712 157.494 272.537 149.39C272.804 149.255 273.13 149.348 273.283 149.602C273.436 149.855 273.363 150.183 273.117 150.351C259.257 158.575 244.347 165.136 228.737 169.377Z" fill="#233940"/>
<path fill-rule="evenodd" clip-rule="evenodd" d="M181.483 193.357C182.649 194.545 183.651 195.88 184.465 197.326C185.274 198.802 185.81 200.408 186.046 202.07L186.132 202.694L186.176 203.319C186.217 203.737 186.198 204.153 186.205 204.568C186.182 205.399 186.116 206.226 186.015 207.032L185.869 208.216C185.844 208.412 185.835 208.59 185.819 208.775C185.819 208.815 185.819 208.878 185.819 208.899C185.817 208.918 185.817 208.937 185.819 208.956C185.822 208.992 185.831 209.028 185.844 209.062C185.897 209.203 186.014 209.31 186.16 209.352C186.306 209.395 186.463 209.37 186.587 209.284C186.641 209.247 186.683 209.198 186.711 209.14V209.115L186.736 209.049L186.79 208.915L186.894 208.646L187.312 207.578C187.432 207.216 187.527 206.845 187.628 206.479L187.786 205.93C187.83 205.745 187.859 205.555 187.897 205.367L188.109 204.243L188.226 203.103C188.265 202.724 188.283 202.342 188.279 201.96C188.279 201.579 188.314 201.198 188.279 200.814C188.127 197.733 187.406 194.705 186.151 191.88C185.535 190.454 184.825 189.07 184.025 187.736L183.877 187.486L183.801 187.361L183.76 187.289L183.696 187.171C183.52 186.844 183.429 186.479 183.431 186.109C183.434 185.372 183.785 184.679 184.38 184.235C184.681 184.005 185.037 183.853 185.414 183.795C185.601 183.764 185.791 183.757 185.98 183.773L186.246 183.804L186.382 183.823C186.739 183.883 187.099 183.925 187.46 183.948C188.884 184.038 190.306 183.742 191.572 183.092C191.881 182.933 192.178 182.751 192.46 182.549L192.65 182.405C192.65 182.405 192.65 182.405 192.65 182.386C192.661 182.37 192.667 182.352 192.669 182.333C192.676 182.309 192.676 182.283 192.669 182.258L192.584 182.012C192.562 181.946 192.565 181.962 192.565 181.959C192.565 181.955 192.565 181.959 192.565 181.959C192.565 181.959 192.587 181.98 192.565 181.959C192.507 181.933 192.445 181.916 192.381 181.909C192.33 181.906 192.278 181.906 192.226 181.909H191.926C191.698 181.909 191.471 181.909 191.246 181.877C190.803 181.827 190.357 181.787 189.933 181.699C189.086 181.545 188.249 181.336 187.429 181.075C185.837 180.552 184.286 179.919 182.786 179.179C179.839 177.721 177.005 176.051 174.306 174.183C171.602 172.353 169.009 170.388 166.491 168.334C163.974 166.279 161.538 164.14 159.173 161.925C154.432 157.509 149.972 152.809 145.816 147.851C141.682 142.882 137.827 137.658 134.623 132.021C133.82 130.614 133.073 129.175 132.384 127.705C131.683 126.237 131.068 124.73 130.54 123.193C129.506 120.117 128.782 116.847 129.06 113.512C129.091 113.207 129.361 112.981 129.671 113.001C129.98 113.021 130.218 113.28 130.208 113.587C130.044 116.666 130.812 119.761 131.903 122.69C133.044 125.631 134.44 128.47 136.075 131.175C139.326 136.618 143.232 141.686 147.41 146.495C151.614 151.295 156.095 155.852 160.83 160.142C165.539 164.437 170.525 168.425 175.758 172.081C178.358 173.897 181.079 175.539 183.902 176.996C185.287 177.702 186.722 178.311 188.194 178.817C188.91 179.056 189.641 179.249 190.383 179.395C190.749 179.476 191.107 179.51 191.471 179.557C191.651 179.573 191.825 179.576 192.002 179.585H192.135H192.309C192.459 179.589 192.609 179.603 192.758 179.626C193.09 179.674 193.411 179.78 193.707 179.938C194.063 180.133 194.361 180.417 194.57 180.762C194.622 180.85 194.668 180.941 194.709 181.034C194.747 181.125 194.785 181.234 194.795 181.262L194.899 181.574C195.007 181.935 195.029 182.316 194.962 182.686C194.895 183.062 194.738 183.416 194.504 183.72C194.386 183.872 194.25 184.009 194.099 184.129L193.805 184.344C193.429 184.607 193.035 184.842 192.625 185.047C190.992 185.861 189.165 186.22 187.34 186.087C186.894 186.054 186.451 185.998 186.012 185.918L185.847 185.89H185.8C185.787 185.888 185.774 185.888 185.762 185.89C185.737 185.891 185.714 185.899 185.695 185.915C185.635 185.955 185.598 186.021 185.594 186.093C185.589 186.124 185.596 186.155 185.613 186.181C185.613 186.181 185.635 186.221 185.645 186.24L185.724 186.374L185.879 186.643C186.712 188.068 187.441 189.55 188.061 191.077C189.348 194.145 190.057 197.42 190.152 200.739C190.18 201.155 190.152 201.573 190.13 201.989C190.124 202.406 190.096 202.823 190.044 203.238L189.892 204.487C189.813 204.896 189.722 205.305 189.636 205.714C189.592 205.917 189.554 206.123 189.5 206.339L189.317 206.938C189.19 207.335 189.076 207.738 188.937 208.131L188.456 209.29L188.336 209.577L188.276 209.721L188.248 209.793L188.191 209.902C188.031 210.2 187.799 210.455 187.514 210.642C186.955 211.012 186.252 211.101 185.616 210.882C184.983 210.667 184.49 210.168 184.288 209.536C184.238 209.38 184.209 209.219 184.199 209.056C184.194 208.974 184.194 208.893 184.199 208.812C184.199 208.737 184.199 208.7 184.215 208.64C184.24 208.428 184.259 208.206 184.291 208.016L184.471 206.823C184.592 206.045 184.671 205.28 184.715 204.515C184.715 204.134 184.747 203.75 184.715 203.372L184.693 202.804L184.633 202.238C184.459 200.725 184.011 199.255 183.311 197.898C182.588 196.53 181.688 195.262 180.632 194.125C180.444 193.892 180.47 193.555 180.692 193.353C180.914 193.151 181.256 193.153 181.476 193.357H181.483Z" fill="#233940"/>
<path fill-rule="evenodd" clip-rule="evenodd" d="M104.797 47.0676C105.995 47.662 107.171 48.2917 108.356 48.9086L111.884 50.8106C114.226 52.0957 116.557 53.3969 118.866 54.7431C119.444 55.075 120.016 55.421 120.58 55.7808C120.864 55.9607 121.15 56.131 121.43 56.3173C121.748 56.5145 122.057 56.729 122.353 56.9599C124.25 58.4925 125.236 60.9515 124.952 63.437C124.907 63.8145 124.836 64.1881 124.739 64.555L124.496 65.5606C124.176 66.9015 123.84 68.2391 123.489 69.5735C123.409 69.8665 123.128 70.047 122.841 69.9893C122.554 69.9316 122.357 69.6549 122.387 69.3518C122.533 67.9767 122.696 66.6048 122.877 65.2361C122.954 64.5679 123.077 63.8161 123.092 63.2827C123.107 62.7065 123.028 62.1318 122.858 61.5832C122.524 60.5093 121.853 59.5844 120.953 58.9583C120.714 58.7996 120.467 58.6538 120.214 58.5213C119.906 58.3607 119.635 58.2001 119.346 58.0201C118.767 57.686 118.195 57.3412 117.628 56.9856C115.359 55.5655 113.118 54.0941 110.883 52.6226L107.546 50.3736C106.444 49.609 105.333 48.8539 104.243 48.0668C104.002 47.8938 103.929 47.556 104.076 47.2916C104.222 47.0272 104.54 46.9254 104.803 47.058L104.797 47.0676Z" fill="#233940"/>
<path fill-rule="evenodd" clip-rule="evenodd" d="M121.391 77.8274C121.835 77.6058 122.268 77.3577 122.687 77.0842C123.103 76.804 123.503 76.4968 123.885 76.1643C124.634 75.5166 125.305 74.7674 125.882 73.9347C126.439 73.1097 127.106 72.3436 127.58 71.3909L127.777 71.0471L127.945 70.6837C128.056 70.4382 128.178 70.1992 128.298 69.9504C128.511 69.4494 128.699 68.9256 128.93 68.4051L128.96 68.3363C129.075 68.0787 129.341 67.9463 129.594 68.0205C129.847 68.0947 130.017 68.3548 129.999 68.6408C129.96 69.2465 129.924 69.8652 129.828 70.4742C129.768 70.7754 129.711 71.0831 129.642 71.3843L129.541 71.8427C129.499 71.9933 129.445 72.1373 129.397 72.2879L129.097 73.1817C128.981 73.4731 128.849 73.7579 128.714 74.046L128.514 74.4749C128.439 74.6124 128.349 74.7434 128.268 74.8776C128.103 75.1463 127.922 75.4033 127.726 75.647C126.923 76.5971 125.972 77.3841 124.918 77.9715C123.882 78.5732 122.739 78.9238 121.568 78.9995C121.308 79.0112 121.077 78.8207 121.015 78.5443C120.954 78.268 121.08 77.9829 121.316 77.8634L121.391 77.8274Z" fill="#233940"/>
<path fill-rule="evenodd" clip-rule="evenodd" d="M123.895 35.145C123.831 35.3401 123.74 35.5245 123.624 35.6918C123.261 36.1798 122.83 36.6086 122.343 36.9636C117.25 41.1545 113.368 46.7031 111.118 53.0074C110.334 55.2044 109.742 57.4778 108.853 59.6335C107.99 61.7351 106.66 63.5093 105.284 65.2802C104.189 66.6919 103.051 68.1132 101.891 69.5408C100.848 70.8285 99.7995 72.1225 98.7692 73.4102C97.2267 75.3179 95.5023 77.2256 93.3676 78.3671C93.0591 78.4752 92.7506 78.5674 92.4021 78.6596C90.9985 79.0424 89.5306 79.1032 88.1018 78.8376C84.946 78.2017 82.5028 75.868 80.8031 73.1654C78.6437 69.7188 76.6756 65.8843 76 61.9895C77.3913 65.4583 79.4797 68.5202 82.8761 70.3484C90.1779 74.275 96.6437 67.7634 100.438 61.9386C100.457 61.91 100.481 61.8877 100.5 61.8623C100.712 58.2677 101.494 54.7331 102.813 51.3986C103.085 50.7277 103.705 50.5306 104.047 51.2841C104.3 51.85 103.995 52.4096 103.739 52.912C102.86 54.594 102.613 56.4858 102.372 58.3553C102.132 60.2248 101.854 62.0531 101.854 63.9671C101.855 64.5721 102.234 65.1075 102.793 65.2929C103.352 65.4784 103.963 65.2717 104.306 64.7811C104.613 64.3741 104.901 63.9586 105.17 63.5347C106.054 62.1262 106.786 60.6217 107.351 59.0484C107.77 57.8719 108.122 56.6712 108.406 55.4524C109.023 52.9088 109.504 50.2889 110.445 47.8407C112.028 43.7233 114.838 40.2353 117.445 36.7443C118.218 35.6936 119.125 34.7547 120.141 33.9527C120.602 33.5632 121.134 33.2715 121.705 33.0942C121.852 33.0481 122.005 33.0204 122.158 33.0115C122.872 32.9276 123.562 33.3073 123.892 33.9654C124.035 34.3446 124.036 34.765 123.895 35.145Z" fill="black" fill-opacity="0.100543"/>
<path fill-rule="evenodd" clip-rule="evenodd" d="M108.969 43.2279C106.607 42.1127 104.121 41.2932 101.566 40.7872C99.0326 40.2578 96.4361 40.1151 93.8615 40.364C91.3272 40.6091 88.868 41.3778 86.6332 42.6233C85.5338 43.272 84.4918 44.0173 83.5189 44.8508C83.0144 45.2613 82.5503 45.7163 82.0645 46.1459L81.3856 46.8364C81.1583 47.0655 80.9309 47.2946 80.7254 47.5428L80.1025 48.2715C79.9001 48.5197 79.7132 48.7807 79.517 49.0353L79.2243 49.4171L78.9595 49.8149C78.7883 50.0822 78.6014 50.3431 78.4395 50.6168C77.7877 51.6979 77.2649 52.8549 76.8823 54.063C76.1415 56.4803 76.0405 59.055 76.5896 61.5251C77.154 64.0428 78.1368 66.443 79.4952 68.6212C80.8667 70.8477 82.4446 72.9342 84.2072 74.8518C84.3162 74.9696 84.4314 75.1032 84.5342 75.2051L84.8456 75.5042C85.0515 75.7022 85.27 75.8861 85.4996 76.0547C85.7238 76.2329 85.9761 76.3729 86.2097 76.5225C86.4432 76.672 86.7111 76.7866 86.9727 76.8916C89.0916 77.8031 91.5128 77.5988 93.4567 76.3443C93.6965 76.1915 93.9176 76.026 94.148 75.8447C94.3785 75.6633 94.5622 75.4755 94.7896 75.2432C95.2474 74.7691 95.7021 74.2886 96.1474 73.8049C99.7009 69.9132 102.821 65.5791 105.048 60.8059C105.31 60.2013 105.599 59.6095 105.827 58.9921L106.188 58.0725C106.3 57.7543 106.4 57.4361 106.499 57.1401C106.724 56.5228 106.892 55.8864 107.069 55.2531L107.633 53.277C107.979 51.9374 108.489 50.6486 108.95 49.3471L109.763 47.4378C109.891 47.1196 110.047 46.8014 110.202 46.4991L110.666 45.5731C111.917 43.1127 113.427 40.7993 115.17 38.6743C116.043 37.613 116.979 36.6076 117.973 35.664C118.966 34.6998 120.042 33.8276 121.186 33.0578C121.441 32.932 121.748 33.0174 121.905 33.258C122.062 33.4985 122.021 33.8205 121.809 34.0124L121.775 34.0347C120.728 34.8013 119.749 35.6595 118.848 36.5995C117.928 37.5404 117.066 38.5383 116.266 39.5875C114.661 41.6827 113.274 43.9424 112.127 46.3304L111.707 47.2278C111.563 47.5269 111.423 47.826 111.308 48.1379L110.573 49.9835C110.165 51.2564 109.704 52.4879 109.405 53.783L108.901 55.7304C108.729 56.4082 108.564 57.086 108.343 57.7479C108.237 58.0661 108.141 58.4162 108.032 58.7439L107.677 59.724C107.452 60.3827 107.163 61.016 106.904 61.6587C104.693 66.7501 101.507 71.3324 97.8977 75.4405C97.4461 75.956 96.9852 76.4588 96.518 76.9616C96.2813 77.2162 95.9761 77.4898 95.7052 77.7508C95.4342 78.0117 95.1041 78.2344 94.7709 78.4476C93.4798 79.2995 92.0065 79.8202 90.4763 79.9655C88.9466 80.0955 87.4084 79.8568 85.9854 79.2686C85.6304 79.1286 85.2941 78.9313 84.9515 78.7627C84.6089 78.594 84.2944 78.3617 83.9923 78.1262C83.6935 77.9037 83.4085 77.6625 83.139 77.4039L82.7279 76.9966C82.5939 76.8598 82.4912 76.7388 82.3728 76.6084C80.5022 74.562 78.8448 72.3224 77.4273 69.9259C75.9641 67.4898 74.9212 64.8151 74.3441 62.0183C73.7589 59.1565 73.9222 56.1875 74.8175 53.4107C75.2717 52.0391 75.8855 50.7282 76.6456 49.5062C77.4019 48.3079 78.2707 47.1878 79.2398 46.1618C79.4703 45.8977 79.7194 45.6527 79.9717 45.414L80.7222 44.6853C81.2486 44.2366 81.7593 43.7657 82.3043 43.3424C83.3864 42.4583 84.5421 41.6725 85.7581 40.994C88.2345 39.6837 90.9461 38.902 93.7276 38.6965C96.4567 38.5175 99.1966 38.7577 101.856 39.4093C104.505 40.0256 107.07 40.9692 109.495 42.2191C109.776 42.3589 109.892 42.7043 109.755 42.9908C109.619 43.2773 109.281 43.3962 109 43.2565L108.969 43.2279Z" fill="#233940"/>
<path fill-rule="evenodd" clip-rule="evenodd" d="M105.166 72.5483C105.06 72.0458 105.005 71.5325 105.002 71.0173C104.992 70.5026 105.027 69.988 105.104 69.48C105.26 68.4133 105.621 67.3931 106.164 66.4843C106.309 66.2514 106.473 66.0332 106.655 65.8322C106.846 65.6369 107.048 65.4573 107.242 65.2809C108.473 64.3411 109.973 63.8951 111.48 64.0209C111.729 64.0294 111.94 64.2203 111.989 64.4821C112.039 64.744 111.914 65.0081 111.688 65.1203L111.609 65.1612C111.415 65.2589 111.227 65.3408 111.039 65.429C110.852 65.5001 110.67 65.5875 110.496 65.6904C110.326 65.7944 110.158 65.9015 109.991 66.0054C109.83 66.1076 109.677 66.2224 109.533 66.3488C109.244 66.5751 108.978 66.8315 108.737 67.1143C108.628 67.2655 108.525 67.4293 108.408 67.5522C108.347 67.6196 108.293 67.6935 108.246 67.7727L108.085 67.9932C107.614 68.6095 107.231 69.2974 106.948 70.0345C106.644 70.8321 106.403 71.6562 106.229 72.4979V72.5546C106.171 72.8157 105.954 73 105.703 73C105.453 73 105.236 72.8157 105.178 72.5546L105.166 72.5483Z" fill="#233940"/>
<path fill-rule="evenodd" clip-rule="evenodd" d="M201.997 210.519C202.018 210.946 201.933 211.371 201.751 211.761C201.576 212.127 201.345 212.466 201.064 212.767C200.535 213.32 199.924 213.795 199.248 214.177C197.958 214.882 196.582 215.435 195.151 215.826C192.335 216.579 189.427 216.973 186.502 216.999C183.573 217.02 180.656 216.631 177.847 215.844C176.411 215.461 175.034 214.903 173.749 214.186C173.072 213.805 172.459 213.33 171.93 212.776C171.652 212.473 171.422 212.132 171.25 211.764C171.065 211.375 170.981 210.949 171.004 210.522C171.016 210.236 171.26 210.008 171.561 210C171.862 209.992 172.119 210.207 172.148 210.492V210.522C172.244 211.037 172.536 211.5 172.967 211.824C173.445 212.209 173.975 212.53 174.543 212.779C175.765 213.293 177.043 213.676 178.354 213.919C181.014 214.437 183.763 214.545 186.496 214.59C189.227 214.652 191.958 214.433 194.64 213.937C195.955 213.701 197.234 213.315 198.451 212.788C199.02 212.54 199.551 212.219 200.027 211.833C200.456 211.504 200.745 211.038 200.84 210.522V210.492C200.878 210.215 201.131 210.01 201.425 210.018C201.719 210.025 201.96 210.243 201.981 210.522L201.997 210.519Z" fill="#233940"/>
<path fill-rule="evenodd" clip-rule="evenodd" d="M164.133 212.59C164.189 213.562 164.726 214.431 165.445 215.153C166.213 215.876 167.075 216.481 168.006 216.949C169.939 217.918 171.977 218.638 174.075 219.094C178.324 220.034 182.661 220.469 187.003 220.39C191.344 220.339 195.704 220.066 199.928 219.078C202.023 218.614 204.059 217.897 205.996 216.942C206.926 216.472 207.787 215.868 208.555 215.147C209.277 214.431 209.814 213.556 209.869 212.59C209.869 212.264 210.122 212 210.434 212C210.745 212 210.998 212.264 210.998 212.59C211.018 213.269 210.884 213.942 210.607 214.557C210.343 215.148 209.995 215.695 209.575 216.177C208.759 217.081 207.818 217.853 206.784 218.465C204.781 219.641 202.644 220.547 200.424 221.162C196.047 222.407 191.529 223.025 186.994 222.999C182.461 222.984 177.95 222.36 173.57 221.142C171.356 220.516 169.223 219.611 167.219 218.446C166.185 217.832 165.245 217.061 164.428 216.158C164.007 215.675 163.657 215.129 163.392 214.538C163.118 213.922 162.984 213.249 163.002 212.57C163.023 212.262 163.269 212.024 163.564 212.024C163.86 212.024 164.105 212.262 164.127 212.57L164.133 212.59Z" fill="#233940"/>
<path fill-rule="evenodd" clip-rule="evenodd" d="M191.492 104.608L186.951 104.014C186.866 104.003 186.78 104.011 186.696 104.038C185.534 103.729 186.12 105.401 186.381 105.896C187.326 107.651 190.269 106.954 191.542 106.256C192.078 105.971 192.242 104.715 191.492 104.608Z" fill="#FF9E80"/>
<path fill-rule="evenodd" clip-rule="evenodd" d="M226.72 48.0429C225.776 48.0063 228.063 47.8718 227.805 48.3912L227.786 48.4523L227.764 48.5226L227.72 48.6509L227.635 48.8953L227.459 49.378L227.097 50.3373C226.852 50.9747 226.601 51.6092 226.345 52.2406C225.834 53.5033 225.303 54.7589 224.754 56.0074C223.655 58.5024 222.489 60.9698 221.256 63.4098C218.78 68.2945 215.984 73.0201 212.886 77.5577C209.741 82.0822 206.234 86.3959 202.117 90.2025C200.053 92.1225 197.812 93.8529 195.42 95.3716C192.997 96.9187 190.361 98.1271 187.591 98.9613C186.191 99.3752 184.757 99.6716 183.304 99.8472C182.577 99.9297 181.841 99.9847 181.102 100H178.945C176.051 99.9304 173.18 99.4855 170.408 98.6772C167.608 97.8644 164.975 96.5824 162.63 94.8889C162.34 94.672 162.044 94.4612 161.758 94.2412L160.944 93.5233C160.4 93.0454 159.887 92.5353 159.409 91.9958C159.159 91.7337 158.926 91.4561 158.714 91.1648L158.066 90.2819C157.864 89.9764 157.676 89.6709 157.481 89.3654C157.278 89.0665 157.095 88.7552 156.933 88.4336C155.532 85.8888 154.871 83.0214 155.021 80.1392L155.055 79.6015C155.06 79.422 155.08 79.2431 155.115 79.0669L155.301 78.0037L155.348 77.7379L155.423 77.4782L155.574 76.9589L155.729 76.4426L155.807 76.1829L155.911 75.9324L156.332 74.9364L156.439 74.689L156.572 74.4538L156.839 73.9833C157.007 73.6689 157.192 73.363 157.392 73.0668L158.022 72.193C158.23 71.9004 158.462 71.6236 158.714 71.3651L159.44 70.5677L160.245 69.8498C160.506 69.6041 160.782 69.3745 161.073 69.1624C162.209 68.2962 163.44 67.5535 164.743 66.9475C167.324 65.7686 170.071 64.9656 172.893 64.5646C173.205 64.5106 173.503 64.7123 173.558 65.0152C173.614 65.3181 173.406 65.6074 173.094 65.6613C170.418 66.1339 167.828 66.9862 165.407 68.1909C164.223 68.7925 163.105 69.509 162.07 70.3294C161.809 70.5293 161.562 70.7457 161.33 70.9771L160.613 71.6431L159.984 72.3794C159.762 72.6157 159.56 72.8691 159.38 73.137L158.833 73.9313C158.661 74.202 158.503 74.4815 158.361 74.7684L158.135 75.19L158.022 75.4008L157.933 75.6238L157.584 76.5098L157.496 76.7298L157.437 76.9589L157.314 77.4171L157.191 77.8754L157.128 78.1045L157.094 78.3398L156.955 79.2777C156.927 79.4329 156.913 79.5904 156.914 79.7481L156.899 80.2217C156.829 82.7574 157.471 85.2637 158.758 87.4713C158.907 87.7541 159.076 88.0267 159.264 88.287L159.799 89.0843L160.409 89.8328C160.601 90.088 160.811 90.3299 161.038 90.5569C161.476 91.0308 161.945 91.4777 162.441 91.895L163.18 92.5274L163.976 93.0956C166.133 94.5933 168.543 95.7131 171.097 96.4042C173.675 97.094 176.331 97.4675 179.004 97.5163H181.027C181.687 97.4979 182.338 97.446 182.993 97.3666C184.302 97.2137 185.595 96.9531 186.858 96.5875C191.944 95.1058 196.534 92.1088 200.531 88.5375C204.529 84.9661 208.03 80.7868 211.194 76.4151C214.351 72.0148 217.215 67.4229 219.768 62.6674C221.06 60.2926 222.292 57.8853 223.464 55.4453C224.047 54.2233 224.613 53.0013 225.163 51.7792L225.974 49.8943L226.361 48.9625L226.547 48.4951L226.638 48.2629L226.679 48.1499L226.698 48.101C226.452 48.5806 228.714 48.492 227.767 48.4676C227.698 48.6659 227.52 48.8096 227.306 48.8394C227.093 48.8691 226.88 48.7798 226.756 48.6084C226.633 48.437 226.618 48.2125 226.72 48.0277V48.0429Z" fill="#233940"/>
<path fill-rule="evenodd" clip-rule="evenodd" d="M126.495 81.893C127.258 81.7435 128.003 81.5179 128.719 81.2194C129.433 80.9329 130.108 80.5614 130.731 80.1132C131.946 79.2884 132.789 78.0271 133.08 76.597C133.212 75.883 133.227 75.1527 133.124 74.4341L133.033 73.8841L132.902 73.3372C132.806 72.988 132.706 72.5153 132.619 72.0858C132.312 70.3369 132.404 68.5424 132.887 66.8331C133.85 63.426 135.936 60.436 138.814 58.3391C138.998 58.2093 139.172 58.0765 139.363 57.9529L139.943 57.6099C140.332 57.3769 140.736 57.1705 141.153 56.9919C141.577 56.7818 141.949 56.6675 142.345 56.5068L143.514 56.0557L145.885 55.2276L148.287 54.4984L150.714 53.8527L153.147 53.3058C154.788 52.9813 156.441 52.7032 158.107 52.5117C161.431 52.0979 164.783 51.9347 168.132 52.0235C171.479 52.1357 174.81 52.5211 178.092 53.176C181.356 53.8813 184.549 54.8772 187.631 56.1515C187.925 56.2607 188.074 56.5851 187.964 56.8761C187.853 57.167 187.526 57.3144 187.232 57.2051H187.213C184.141 56.1542 180.987 55.3533 177.784 54.8105C174.583 54.3273 171.351 54.0835 168.114 54.0813C161.632 54.1369 155.2 55.1967 148.961 56.89L146.634 57.5697L144.325 58.3144L143.184 58.7223C142.816 58.8613 142.395 58.988 142.08 59.1394C141.737 59.2743 141.404 59.4334 141.084 59.6152L140.598 59.884C140.439 59.9829 140.286 60.0941 140.133 60.193C137.622 61.9471 135.765 64.472 134.849 67.3769C134.384 68.8005 134.246 70.3092 134.447 71.7923C134.512 72.1631 134.559 72.4906 134.662 72.9355L134.79 73.5844L134.871 74.2456C134.963 75.1498 134.907 76.0627 134.705 76.9492C134.493 77.8454 134.094 78.6875 133.533 79.4211C132.984 80.1401 132.313 80.7582 131.549 81.2472C130.812 81.7226 130.021 82.1076 129.19 82.3935C128.369 82.6805 127.519 82.8814 126.654 82.993C126.346 83.0416 126.056 82.8334 126.007 82.5279C125.958 82.2225 126.168 81.9354 126.477 81.8868L126.495 81.893Z" fill="#233940"/>
<path fill-rule="evenodd" clip-rule="evenodd" d="M192.445 180.224C190.617 179.647 188.424 179.622 186.465 178.998C184.353 178.33 182.363 177.316 180.397 176.309C173.654 172.855 168.209 167.543 162.636 162.461C151.088 151.933 140.041 140.49 133.619 126C130.763 119.431 129.555 112.26 130.101 105.115C130.185 104.086 130.863 103.661 131.765 104.27C136.458 107.43 142.084 108.484 147.518 109.641C150.982 110.38 154.471 110.988 157.983 111.466C159.401 111.66 173.947 112.334 173.993 112.505C173.854 111.981 173.891 111.569 173.371 111.31C168.209 108.874 163.304 105.929 158.496 102.863C156.067 101.303 153.66 99.7433 151.247 98.1617C146.27 94.9205 141.409 91.2987 136.265 88.2166C133.886 86.7674 131.407 85.4884 128.848 84.389C124.366 82.5173 119.297 81.2539 114.473 82.4954C112.65 82.9711 110.931 83.7824 109.404 84.8881C90.6036 98.4175 104.251 131.425 113.618 146.67C125.371 165.765 144.187 180.361 165.211 187.068C170.974 188.905 173.984 194.52 170.003 195.852C168.184 196.476 166.312 194.09 165.649 193.21C165.336 192.805 164.781 192.677 164.323 192.904C163.864 193.131 163.628 193.65 163.758 194.146C164.542 197.365 168.846 203.074 171.77 204.556L171.997 204.587C177.284 205.211 182.26 202.266 184.82 197.796C185.186 200.923 185.093 204.086 184.543 207.186C184.039 210.009 188.343 211.222 188.85 208.377C190.363 200.098 189.06 191.549 185.149 184.101C186.75 184.283 188.367 184.265 189.964 184.048C190.073 184.031 190.184 184.031 190.293 184.048C192.803 184.488 195.938 181.328 192.445 180.224Z" fill="#FFAB91"/>
<path fill-rule="evenodd" clip-rule="evenodd" d="M170.782 204.963C169.872 204.501 169.035 203.908 168.296 203.203C167.577 202.537 166.901 201.826 166.273 201.073C165.003 199.579 163.909 197.943 163.014 196.198L162.703 195.517L162.427 194.808L162.312 194.435L162.256 194.249L162.228 194.155L162.2 194.022C162.1 193.445 162.3 192.857 162.73 192.46C163.16 192.063 163.762 191.911 164.328 192.057C164.7 192.153 165.028 192.372 165.26 192.678C165.4 192.862 165.543 193.039 165.689 193.213C166.221 193.895 166.882 194.464 167.635 194.889C167.939 195.054 168.284 195.126 168.629 195.097L168.853 195.048L169.123 194.942C169.21 194.905 169.291 194.855 169.375 194.814C169.459 194.774 169.524 194.715 169.598 194.665C169.858 194.468 170.046 194.19 170.133 193.875C170.21 193.525 170.199 193.16 170.099 192.815C169.854 192.01 169.429 191.271 168.856 190.654C167.639 189.34 166.111 188.353 164.412 187.784L161.703 186.87L160.335 186.407C159.878 186.252 159.437 186.065 158.987 185.894L156.305 184.865L153.664 183.696C139.567 177.29 127.217 167.585 117.655 155.402C112.842 149.36 108.933 142.629 105.72 135.636C102.507 128.643 99.9339 121.284 98.6661 113.598C98.5729 113.119 98.5294 112.634 98.4579 112.152C98.3865 111.67 98.3181 111.188 98.2746 110.7C98.1907 109.727 98.0788 108.757 98.054 107.777C97.9509 105.808 97.9955 103.833 98.1876 101.87C98.3919 99.8921 98.7778 97.9374 99.3404 96.0306C99.9533 94.1129 100.788 92.2733 101.826 90.549C102.081 90.1137 102.392 89.7126 102.675 89.3053L103.11 88.6834C103.265 88.4844 103.42 88.2979 103.594 88.102C103.924 87.7196 104.244 87.3247 104.583 86.9547L105.67 85.9007C106.03 85.5482 106.413 85.22 106.817 84.9181C107.215 84.6072 107.591 84.2807 108.013 83.9854C108.436 83.69 108.861 83.4039 109.315 83.1583C109.761 82.8976 110.221 82.6609 110.692 82.4494C111.634 82.0227 112.615 81.6895 113.622 81.4544C114.122 81.3176 114.632 81.2554 115.138 81.1622C115.645 81.0689 116.158 81.0316 116.67 81.0223C118.693 80.9311 120.719 81.1205 122.689 81.585C126.589 82.4774 130.194 84.1128 133.599 85.9722C136.971 87.8593 140.237 89.9279 143.384 92.1689C146.532 94.3702 149.599 96.6493 152.688 98.86C154.242 99.9638 155.795 101.036 157.365 102.019C158.145 102.501 158.984 102.97 159.804 103.446C160.624 103.922 161.448 104.398 162.29 104.855C175.524 112.264 189.507 118.426 204.134 122.465C211.452 124.418 218.9 126.097 226.42 126.321C228.294 126.369 230.169 126.322 232.038 126.181C233.899 126.017 235.748 125.738 237.576 125.348C239.39 124.937 241.17 124.384 242.898 123.694C244.62 122.983 246.276 122.124 247.849 121.125C251.02 119.13 253.886 116.687 256.36 113.871C257.598 112.471 258.727 110.976 259.734 109.4C260.725 107.826 261.563 106.16 262.236 104.426C263.559 100.971 264.1 97.1717 263.329 93.5618C262.933 91.7557 262.243 90.0269 261.288 88.444C261.063 88.0399 260.813 87.6505 260.539 87.2781C260.259 86.9081 260.008 86.5163 259.709 86.1618L258.802 85.1109C258.491 84.7627 258.149 84.4269 257.826 84.0849C257.605 83.8633 257.605 83.5042 257.826 83.2827C258.048 83.0612 258.407 83.0612 258.628 83.2827C261.425 85.938 263.699 89.3986 264.56 93.282C264.993 95.2197 265.107 97.2151 264.899 99.1896C264.693 101.149 264.24 103.074 263.55 104.92C262.865 106.755 262.004 108.519 260.977 110.187C259.945 111.841 258.785 113.413 257.509 114.888C254.96 117.842 251.999 120.412 248.715 122.518C247.072 123.581 245.339 124.499 243.535 125.261C241.721 126.004 239.851 126.603 237.942 127.052C236.04 127.481 234.113 127.792 232.172 127.984C230.236 128.148 228.294 128.213 226.352 128.18C224.415 128.128 222.484 128.001 220.559 127.798C218.639 127.58 216.728 127.31 214.829 126.974C212.931 126.638 211.045 126.265 209.174 125.82C207.303 125.376 205.445 124.928 203.581 124.455C188.715 120.507 174.514 114.347 161.09 106.938C160.245 106.481 159.412 106.005 158.58 105.532C157.747 105.06 156.917 104.6 156.069 104.084C154.403 103.061 152.806 101.972 151.237 100.865C148.111 98.6455 145.072 96.3571 141.964 94.1899C138.886 92.0004 135.691 89.9796 132.394 88.1362C129.112 86.3391 125.685 84.8031 122.139 83.9916C118.594 83.1801 114.899 83.236 111.705 84.6974C111.31 84.887 110.912 85.0705 110.536 85.2975C110.16 85.5244 109.787 85.7545 109.418 85.997C109.048 86.2396 108.706 86.5474 108.349 86.8179C107.985 87.0846 107.64 87.3765 107.317 87.6916L106.341 88.6244C106.031 88.9539 105.754 89.3022 105.456 89.6411C105.31 89.8121 105.145 89.98 105.018 90.1541L104.629 90.7044C104.378 91.0776 104.095 91.4289 103.865 91.8176C102.926 93.3659 102.169 95.0175 101.609 96.7395C101.08 98.4942 100.713 100.294 100.512 102.115C100.32 103.958 100.266 105.812 100.35 107.662C100.35 108.595 100.468 109.528 100.543 110.461C100.577 110.927 100.655 111.393 100.708 111.854C100.761 112.314 100.813 112.786 100.897 113.243C102.066 120.653 104.539 127.857 107.637 134.762C110.735 141.668 114.529 148.26 119.2 154.205C128.506 166.217 140.561 175.815 154.35 182.191L156.936 183.36L159.568 184.42C160.009 184.591 160.441 184.784 160.888 184.939L162.228 185.409L164.931 186.342C166.863 187.014 168.593 188.164 169.962 189.684C170.689 190.477 171.221 191.429 171.516 192.464C171.666 193.045 171.666 193.655 171.516 194.236C171.341 194.848 170.971 195.385 170.462 195.766C170.338 195.847 170.214 195.937 170.086 196.008C169.959 196.08 169.828 196.145 169.698 196.201C169.567 196.257 169.44 196.304 169.3 196.35C169.16 196.397 168.989 196.431 168.825 196.453C168.213 196.511 167.598 196.388 167.057 196.099C166.14 195.584 165.338 194.889 164.698 194.056C164.54 193.863 164.387 193.667 164.238 193.468C164.186 193.391 164.108 193.336 164.018 193.313C163.827 193.265 163.629 193.349 163.53 193.518C163.483 193.603 163.465 193.702 163.48 193.798V193.838L163.502 193.916L163.548 194.071L163.638 194.382L163.875 195.004L164.154 195.626C164.987 197.292 166.007 198.857 167.196 200.29C167.784 201.01 168.417 201.691 169.092 202.33C169.73 202.957 170.454 203.491 171.242 203.915L171.273 203.931C171.552 204.069 171.666 204.407 171.528 204.686C171.39 204.965 171.052 205.08 170.773 204.941L170.782 204.963Z" fill="#233940"/>
</g>
<defs>
<linearGradient id="paint0_linear" x1="297.289" y1="234.078" x2="297.289" y2="24.7201" gradientUnits="userSpaceOnUse">
<stop stop-color="#438EFF"/>
<stop offset="1" stop-color="#6ACCFF"/>
</linearGradient>
<linearGradient id="paint1_linear" x1="-28.7724" y1="166.315" x2="54.0374" y2="367.696" gradientUnits="userSpaceOnUse">
<stop stop-color="#6DCBFE"/>
<stop offset="1" stop-color="#6993FB"/>
<stop offset="1" stop-color="#00EFE2"/>
</linearGradient>
<linearGradient id="paint2_linear" x1="270.612" y1="167.487" x2="270.612" y2="90.1335" gradientUnits="userSpaceOnUse">
<stop stop-color="#438EFF"/>
<stop offset="1" stop-color="#6ACCFF"/>
</linearGradient>
<linearGradient id="paint3_linear" x1="238.144" y1="111.603" x2="238.144" y2="77.9711" gradientUnits="userSpaceOnUse">
<stop stop-color="#438EFF"/>
<stop offset="1" stop-color="#6ACCFF"/>
</linearGradient>
<linearGradient id="paint4_linear" x1="119.179" y1="76.2434" x2="119.179" y2="37.5668" gradientUnits="userSpaceOnUse">
<stop stop-color="#438EFF"/>
<stop offset="1" stop-color="#6ACCFF"/>
</linearGradient>
<linearGradient id="paint5_linear" x1="257.995" y1="124.064" x2="257.995" y2="82.8646" gradientUnits="userSpaceOnUse">
<stop stop-color="#438EFF"/>
<stop offset="1" stop-color="#6ACCFF"/>
</linearGradient>
</defs>
</svg>
