<svg width="353" height="207" viewBox="0 0 353 207" fill="none" xmlns="http://www.w3.org/2000/svg">
<path opacity="0.214914" fill-rule="evenodd" clip-rule="evenodd" d="M240.699 192.47C273.027 195.627 305.302 184.59 328.352 161.724C342.435 147.756 353.158 129.406 350.629 106.722C344.076 48.1919 282.268 -6.73234 199.98 8.40484C167.589 14.341 134.704 11.8552 102.647 5.16222C67.1783 -2.25055 28.3455 -6.86961 6.73296 29.2036C-11.5863 59.8119 11.1401 94.8723 31.223 118.06C76.0966 169.898 184.675 186.998 240.699 192.47Z" fill="url(#paint0_linear)"/>
<path opacity="0.751418" fill-rule="evenodd" clip-rule="evenodd" d="M188 55.1619C188 55.1619 221.243 56.7043 241.687 41.782C262.132 26.8596 286.104 22.132 301.852 32.7282C317.599 43.3244 374.139 93.6516 340.492 122.11C314.606 143.99 271.844 149 271.844 149L188 55.1619Z" fill="url(#paint1_linear)"/>
<path fill-rule="evenodd" clip-rule="evenodd" d="M236 135.845C236 135.845 216.832 162.505 175.82 180.323C164.93 185.053 153.836 189.868 142.926 194.082C112.75 205.734 83.9943 212.775 64.9154 200.749C38.9401 184.36 72.2116 119.549 72.2116 119.549C95.4735 75.1045 210.702 77.0119 210.702 77.0119L214.774 86.5082L236 135.845Z" fill="#968AB2"/>
<path fill-rule="evenodd" clip-rule="evenodd" d="M69 142C69 142 83.1375 133.91 89.5212 136.645C93.2255 138.262 97.144 139.337 101.156 139.835L117 115.235L101.492 97L69 142Z" fill="#8470B2"/>
<path fill-rule="evenodd" clip-rule="evenodd" d="M236 135.395C236 135.395 216.885 162.07 175.985 179.899C165.124 184.631 169.588 183.783 158.708 188C145.732 170.657 161.462 161.651 176.328 153.309C191.789 144.638 196.005 133.298 189.061 115.425C180.386 93.0856 142 112 142 112L156.324 95.3239L214.847 86L236 135.395Z" fill="#8470B2"/>
<path fill-rule="evenodd" clip-rule="evenodd" d="M68.7182 184.033C72.3803 169.617 78.7432 154.948 90.5337 145.277C91.9066 144.162 89.9427 142.219 88.5774 143.334C76.4502 153.287 69.818 168.476 66.0474 183.29C65.6135 185.003 68.2918 185.735 68.7145 184.033H68.7182Z" fill="#8470B2"/>
<path fill-rule="evenodd" clip-rule="evenodd" d="M271.666 147.343C267.172 159.855 257.243 172.518 236.726 180.324C229.477 183.11 222.077 185.488 214.56 187.446C177.624 196.951 160.641 188.628 160.641 188.628C158.87 187.974 157.07 186.042 156.329 183.364C155.835 181.536 155.854 179.608 156.384 177.79C156.518 177.297 156.683 176.814 156.877 176.342C157.462 174.908 159.552 173.386 162.408 171.875L162.449 171.853C163.983 171.044 165.739 170.243 167.602 169.471C167.77 169.397 167.939 169.329 168.11 169.268C173.196 167.184 178.998 165.315 183.273 164.026L183.351 164.004C186.993 162.895 189.509 162.241 189.509 162.241C189.509 162.241 201.453 158.496 210.137 149.098L210.537 148.666C211.775 147.289 212.906 145.819 213.919 144.27C215.093 142.492 216.074 140.595 216.846 138.611C216.905 138.448 216.976 138.286 217.031 138.123C217.087 137.961 217.131 137.846 217.176 137.706C217.176 137.684 217.176 137.661 217.198 137.639C217.971 135.38 218.358 133.008 218.343 130.621C218.323 128.827 218.058 127.045 217.554 125.323C217.257 124.294 216.886 123.288 216.442 122.313V122.291C212.737 114.289 205.05 109.709 205.05 109.709C205.05 109.709 189.494 97.4039 173.07 96.9495C156.647 96.4952 142.043 111.508 142.043 111.508L138.442 115.704L122.189 134.643L121.737 135.168L121.682 135.301C115.117 143.878 108.978 152.567 103.028 159.737L102.747 160.073C102.554 160.295 102.376 160.505 102.18 160.708L101.902 161.004L101.624 161.285C97.0301 165.902 93.3475 165.03 91.1024 163.132C90.9839 163.032 90.8653 162.929 90.7542 162.821C90.0871 162.187 89.5322 161.446 89.113 160.627C87.7681 157.956 88.3461 151.337 89.113 148.806C90.6319 143.76 91.9656 139.235 93.6772 134.248C96.1261 127.115 100.368 120.015 104.695 113.27H104.729H104.703L104.643 113.292C104.517 113.333 104.384 113.403 104.243 113.451C104.243 113.451 104.199 113.525 104.162 113.525C104.043 113.525 103.854 113.772 103.851 113.776C101.628 114.6 97.8192 116.99 93.6476 119.819C91.6248 121.197 89.5131 122.675 87.4569 124.134L87.3903 124.186C82.9223 127.348 78.4506 131.123 74.9941 135.268C71.2152 139.771 67.9773 142.526 65.5173 144.204C64.4111 144.972 63.2353 145.637 62.0052 146.187C61.4906 146.425 60.9548 146.614 60.4047 146.752H60.3677C59.6267 146.812 58.945 146.752 58.3448 146.752C58.2333 146.739 58.1231 146.717 58.0151 146.686C57.7187 146.632 57.4274 146.553 57.1445 146.45L57.0667 146.416L56.9259 146.361C56.8518 146.335 56.7851 146.302 56.7148 146.268L56.5147 146.172C56.3813 146.106 56.2591 146.032 56.1442 145.955L56.0071 145.862L55.8071 145.711C55.7515 145.67 55.7033 145.626 55.6478 145.578L55.5033 145.441C55.4514 145.397 55.407 145.345 55.3625 145.297C55.3145 145.25 55.2699 145.199 55.2291 145.146C55.1425 145.046 55.0621 144.941 54.9883 144.832C54.9099 144.723 54.8381 144.609 54.7735 144.492C54.7401 144.433 54.7105 144.377 54.6771 144.314C54.3998 143.752 54.2111 143.15 54.1177 142.53C54.1177 142.456 54.0955 142.386 54.0844 142.312L54.0584 142.094L54.0325 141.839C54.0325 141.706 54.0325 141.577 54.0103 141.444C53.8176 137.011 56.3998 131.393 56.3998 131.393C56.3998 131.393 56.5406 131.141 56.8185 130.672L56.9815 130.395C57.0074 130.344 57.0445 130.292 57.0778 130.233L57.189 130.052C57.9966 128.692 59.4118 126.358 61.3124 123.436L61.6828 122.845C61.8051 122.653 61.9348 122.475 62.0533 122.261C67.0214 114.917 72.1599 107.644 77.8727 100.869C81.9333 96.0115 86.3705 91.4797 91.1432 87.3155C93.9879 84.8725 97.037 82.6764 100.257 80.7512C106.926 76.7174 114.187 73.7547 121.63 70.9694C126.616 69.1052 131.652 67.3628 136.738 65.7424C145.965 62.7872 155.301 60.2149 164.746 58.0256C189.034 52.3811 213.69 49.581 227.601 54.6492C235.792 57.634 243.002 63.4262 249.111 70.1641C263.823 86.3551 272.169 107.965 272.507 108.837C272.507 108.837 272.507 108.837 272.507 108.863C272.507 108.889 272.507 108.863 272.507 108.885C272.516 108.925 272.527 108.964 272.54 109.003L272.562 109.081C272.688 109.494 272.981 110.514 273.303 112.01C273.313 112.047 273.32 112.084 273.325 112.121L273.392 112.431C274.822 118.818 276.823 132.981 271.666 147.343Z" fill="#CB8C6E"/>
<path fill-rule="evenodd" clip-rule="evenodd" d="M274.939 127.393C271.768 119.057 255.937 69.4326 201.104 61.8018C165.284 56.829 143.238 69.0487 135.609 74.8004C134.816 75.401 134.037 76.0163 133.274 76.6463C129.819 79.5335 126.609 82.6968 123.675 86.1046C120.946 89.2389 118.403 92.5393 115.986 95.9062C112.789 100.366 109.793 104.958 106.774 109.543C106.402 110.134 105.971 110.695 105.554 111.231C105.038 111.917 104.506 112.571 104 113.22C97.7214 116.005 91.8791 119.673 86.6533 124.111C78.2549 131.125 71.8084 139.831 62.2872 145.523C61.0195 146.28 59.6476 147 58.1679 147C55.7588 146.963 53.7736 144.829 53.2196 142.5C52.6657 140.17 53.2419 137.726 54.0338 135.485C56.1641 129.412 59.8149 123.993 63.5141 118.714C72.511 105.863 82.2255 93.1632 95.0034 84.0114C115.676 69.1308 139.265 58.7258 164.243 53.4695C188.732 48.338 213.566 49.0394 227.318 54.6435C268.068 71.2379 275.794 117.263 274.939 127.393Z" fill="#B37B60"/>
<path fill-rule="evenodd" clip-rule="evenodd" d="M70.4454 196.463C75.335 196.909 80.2591 196.813 85.1276 196.178C87.5666 195.893 89.961 195.419 92.3777 194.9L94.166 194.463L95.0583 194.244L95.9432 193.992L97.7129 193.489L99.4455 192.926C104.119 191.404 108.649 189.475 112.983 187.162C117.326 184.867 121.47 182.216 125.371 179.234C133.194 173.276 140.007 166.104 145.548 157.994C146.92 155.964 148.229 153.893 149.445 151.767C150.66 149.641 151.813 147.429 153.129 145.31C155.721 141.022 158.82 137.06 162.361 133.508C165.927 129.934 170.066 126.977 174.608 124.759C176.899 123.685 179.279 122.81 181.72 122.143C184.161 121.513 186.647 121.072 189.156 120.825C191.669 120.618 194.193 120.581 196.711 120.713C199.229 120.877 201.734 121.191 204.214 121.654C206.679 122.144 209.116 122.762 211.516 123.506C213.93 124.273 216.273 125.249 218.517 126.422C220.744 127.554 222.907 128.807 224.997 130.174C227.098 131.523 229.132 132.953 231.158 134.379C233.184 135.805 235.192 137.238 237.23 138.605C239.267 139.972 241.319 141.291 243.468 142.469C244.524 143.08 245.621 143.602 246.707 144.147C247.822 144.629 248.915 145.151 250.053 145.547C252.312 146.411 254.649 147.056 257.031 147.474C261.841 148.285 266.74 148.423 271.587 147.885L270.747 148.533C272.708 142.984 273.795 137.166 273.971 131.286C274.072 128.345 273.973 125.4 273.673 122.473C273.37 119.539 272.882 116.626 272.212 113.753V113.664L272.19 113.571L272.138 113.371L272.033 112.975L271.829 112.182L271.624 111.39L271.52 110.993L271.39 110.515L271.472 110.749C271.398 110.6 271.357 110.437 271.353 110.271L271.461 110.727V110.701L271.39 110.523C269.572 104.305 267.009 98.3276 263.757 92.7198C260.502 87.0999 256.716 81.8021 252.451 76.8986C250.324 74.4241 248.053 71.9089 246.454 68.8047C245.607 67.222 245.107 65.4784 244.985 63.689C244.953 63.2314 244.953 62.7722 244.985 62.3147C245.026 61.8591 245.112 61.4034 245.197 60.9515C245.41 60.0596 245.741 59.2 246.182 58.3955C247.06 56.8586 248.204 55.489 249.562 54.3504C250.845 53.2131 252.202 52.2352 253.518 51.261C254.821 50.3382 256.063 49.3322 257.236 48.2493C257.835 47.7381 258.351 47.138 258.916 46.5713C259.482 46.0045 259.98 45.3822 260.489 44.7599C262.538 42.278 264.386 39.5738 266.412 36.9548C268.438 34.3359 270.639 31.7095 273.476 29.687C276.288 27.5917 279.641 26.3388 283.143 26.0752C284.869 25.9323 286.606 25.9932 288.318 26.2567C289.173 26.3605 290.006 26.5568 290.843 26.7309C291.679 26.905 292.497 27.1569 293.3 27.4347C294.912 27.9587 296.484 28.5937 298.007 29.335C299.526 30.0636 301.003 30.8761 302.432 31.7688C305.239 33.5617 307.982 35.425 310.611 37.4549C315.885 41.4691 320.845 45.8763 325.449 50.6386C330.068 55.3902 334.339 60.4658 338.228 65.8264C338.73 66.4858 339.187 67.1748 339.66 67.8564L341.065 69.9049C341.972 71.2903 342.85 72.6942 343.731 74.0982C344.552 75.5354 345.422 76.9505 346.207 78.41L347.371 80.6067L347.951 81.718L348.501 82.8293C349.963 85.8594 351.109 89.0308 351.921 92.2938C352.765 95.5906 353.117 98.993 352.966 102.392C352.796 105.835 351.951 109.211 350.479 112.331C348.988 115.401 347.032 118.225 344.679 120.702C342.375 123.158 339.828 125.374 337.076 127.318C334.362 129.269 331.521 131.039 328.573 132.615C322.698 135.786 316.485 138.205 310.236 140.354C307.105 141.424 303.956 142.417 300.807 143.377C297.658 144.336 294.509 145.292 291.326 146.192C284.968 147.981 278.477 149.526 271.803 150.215L272.941 149.329C270.798 155.336 267.551 160.892 263.367 165.714C259.178 170.485 254.289 174.599 248.867 177.916C243.487 181.217 237.75 183.903 231.764 185.921C225.812 187.921 219.724 189.494 213.546 190.629C207.393 191.792 201.225 192.692 194.997 193.363C188.748 194.07 182.452 194.279 176.169 193.989C173.008 193.818 169.859 193.46 166.741 192.915C165.126 192.643 163.539 192.225 162 191.666C160.402 191.1 158.897 190.297 157.539 189.284C156.07 188.205 154.943 186.729 154.289 185.032C153.655 183.265 153.648 181.335 154.271 179.564C154.894 177.908 155.897 176.42 157.2 175.219C157.807 174.638 158.453 174.099 159.134 173.608C159.471 173.361 159.812 173.127 160.156 172.907L160.677 172.581L160.922 172.437L161.045 172.363L161.108 172.326L161.201 172.27C161.284 172.224 161.371 172.184 161.461 172.152L161.208 172.267C162.059 171.778 162.934 171.333 163.83 170.933L166.451 169.822C168.239 169.081 169.986 168.455 171.771 167.825C173.556 167.195 175.333 166.606 177.11 166.021L182.605 164.254L182.434 164.299C185.955 163.117 189.435 161.883 192.8 160.424C196.158 159.016 199.359 157.263 202.351 155.193C205.328 153.145 208.017 150.711 210.349 147.955C211.497 146.589 212.522 145.125 213.412 143.58C213.854 142.81 214.256 142.022 214.621 141.217C214.992 140.398 215.271 139.631 215.606 138.661L215.572 138.75C215.955 137.563 216.241 136.348 216.428 135.116C216.615 133.89 216.69 132.65 216.651 131.412C216.656 130.193 216.502 128.979 216.193 127.8C215.882 126.614 215.446 125.464 214.892 124.37L215.137 124.71C215.029 124.601 214.938 124.476 214.866 124.34L214.844 124.296L214.795 124.207L214.699 124.033L214.509 123.684C214.375 123.455 214.267 123.214 214.115 122.992C213.818 122.543 213.565 122.077 213.238 121.647C212.91 121.217 212.62 120.765 212.271 120.35L211.765 119.717L211.226 119.061C209.765 117.424 208.18 115.901 206.486 114.505C204.79 113.086 202.995 111.771 201.154 110.512C200.236 109.878 199.295 109.271 198.355 108.66C197.414 108.048 196.466 107.489 195.499 106.937C194.532 106.385 193.566 105.844 192.566 105.37C192.067 105.129 191.58 104.863 191.078 104.629L189.565 103.955C187.539 103.086 185.453 102.363 183.323 101.792C181.202 101.229 179.038 100.839 176.854 100.625C174.673 100.431 172.479 100.431 170.299 100.625C165.915 101.051 161.639 102.229 157.658 104.107C153.645 106 149.868 108.353 146.403 111.119C139.402 116.642 133.327 123.325 127.635 130.278C121.943 137.231 116.63 144.554 111.176 151.785C108.436 155.404 105.692 158.987 102.728 162.498C102.323 162.958 101.94 163.384 101.498 163.798L100.84 164.417C100.617 164.621 100.371 164.806 100.137 165.002C99.1632 165.799 98.0657 166.432 96.8876 166.877C95.6287 167.353 94.2615 167.471 92.9391 167.218C91.6286 166.943 90.4147 166.327 89.4219 165.432C88.9359 165.009 88.4971 164.534 88.1131 164.017C87.9207 163.76 87.7419 163.493 87.5778 163.217C87.4023 162.93 87.2518 162.629 87.1279 162.317C86.6932 161.138 86.4522 159.897 86.414 158.642C86.3006 156.305 86.454 153.962 86.8713 151.659C86.9767 151.063 87.117 150.473 87.2915 149.892L87.7822 148.274L88.7675 145.029C89.4256 142.865 90.0985 140.702 90.8087 138.542C91.1805 137.464 91.5225 136.39 91.8943 135.312C92.2661 134.234 92.6825 133.145 93.1324 132.089C94.0173 129.967 95.01 127.9 96.077 125.881C98.2111 121.84 100.609 117.969 103.063 114.153L102.896 114.716C102.903 114.439 103.015 114.175 103.208 113.975L102.899 114.716C102.901 114.463 102.993 114.218 103.16 114.027C103.228 113.947 103.308 113.878 103.398 113.823C103.333 113.865 103.273 113.914 103.219 113.968L103.074 114.149L109.447 104.318C111.586 101.019 113.86 97.8083 116.269 94.6868C117.474 93.131 118.713 91.6036 119.987 90.1046C121.266 88.6228 122.56 87.1411 123.958 85.7001C126.743 82.8663 129.747 80.3399 132.569 77.6876C133.982 76.3615 135.35 75.0094 136.621 73.5795C137.227 72.8609 137.967 72.0978 138.209 71.5162C138.333 71.2526 138.364 70.9552 138.298 70.6716C138.21 70.3229 138.055 69.9946 137.841 69.7048C137.373 69.0246 136.747 68.4677 136.015 68.0823C135.244 67.7049 134.412 67.4642 133.558 67.3711C131.715 67.2284 129.861 67.3962 128.074 67.8675C126.22 68.3268 124.403 68.9224 122.638 69.6493C120.854 70.3642 119.099 71.1754 117.374 72.046C113.916 73.8077 110.549 75.7413 107.287 77.8395L106.063 78.6285L104.87 79.4583L102.479 81.1216L100.089 82.7848C99.3079 83.3627 98.5272 83.9443 97.7613 84.5407C94.6865 86.9077 91.7084 89.4267 88.8158 92.0197C85.9233 94.6127 83.1199 97.3169 80.3909 100.091C77.6619 102.866 75.011 105.711 72.4865 108.66C67.4487 114.561 62.7975 120.832 59.0126 127.574C57.1536 130.945 55.4583 134.449 54.3949 138.098C53.8856 139.913 53.5138 141.802 53.6513 143.577C53.6914 144.417 53.9474 145.234 54.3949 145.947C54.852 146.596 55.5387 147.049 56.3171 147.214L56.4249 147.248C56.3982 147.234 56.3691 147.227 56.3394 147.225L56.4249 147.244C56.5439 147.273 56.7335 147.307 56.9157 147.336C57.0979 147.366 57.2875 147.385 57.4697 147.399C57.8411 147.424 58.2137 147.424 58.5851 147.399C58.771 147.399 58.9569 147.373 59.139 147.351C59.3212 147.329 59.5108 147.299 59.693 147.266C60.0648 147.21 60.4366 147.088 60.7824 147.003C62.2452 146.525 63.6248 145.824 64.8721 144.925C67.4487 143.128 69.7538 140.872 72.0367 138.609C74.3195 136.346 76.554 133.99 78.874 131.715C81.194 129.441 83.5772 127.222 86.0794 125.133L86.0348 125.173C86.1649 125.059 86.2133 125.022 86.2765 124.97L86.4661 124.814L86.8379 124.499L87.6112 123.877C88.1293 123.465 88.6523 123.057 89.1802 122.654C90.2361 121.852 91.3131 121.076 92.4111 120.328C94.6029 118.827 96.8796 117.453 99.2299 116.213L99.1704 116.246L99.2113 116.224L99.2708 116.19L101.431 115.138L102.513 114.612C102.885 114.435 103.256 114.242 103.602 114.112L103.524 114.153L103.688 114.075L103.933 114.027C103.821 114.028 103.712 114.056 103.613 114.109C103.558 114.138 103.508 114.175 103.465 114.22C103.509 114.174 103.561 114.135 103.617 114.105C103.716 114.05 103.827 114.021 103.941 114.02L103.68 114.075C105.502 113.29 107.368 112.568 109.257 111.942C111.146 111.316 113.072 110.778 115.013 110.323C118.894 109.42 122.841 108.828 126.817 108.552C127.159 108.534 127.452 108.791 127.477 109.131C127.502 109.471 127.25 109.768 126.91 109.8C123.004 110.087 119.128 110.684 115.318 111.586C113.416 112.04 111.538 112.577 109.681 113.197C107.822 113.82 106.011 114.527 104.212 115.313L103.952 115.368C104.063 115.368 104.173 115.34 104.271 115.287C104.327 115.258 104.377 115.22 104.42 115.175C104.376 115.221 104.324 115.26 104.268 115.29C104.169 115.345 104.057 115.374 103.944 115.375L104.19 115.327H104.219L104.141 115.368C103.77 115.52 103.427 115.687 103.074 115.864L102.022 116.383L99.9177 117.417L99.9772 117.383L99.9363 117.405L99.8768 117.439C97.5767 118.668 95.3497 120.029 93.2068 121.514C92.1335 122.254 91.0788 123.02 90.0428 123.81C89.5247 124.205 89.0117 124.608 88.5035 125.018L87.0387 126.218L86.994 126.259C84.5402 128.33 82.1904 130.526 79.9002 132.793C77.6099 135.06 75.3828 137.398 73.0963 139.702C70.8097 142.006 68.4749 144.303 65.7421 146.225C64.3638 147.221 62.8386 147.997 61.2211 148.526C60.7973 148.629 60.392 148.763 59.9496 148.837C59.7228 148.877 59.5183 148.914 59.3026 148.937C59.087 148.959 58.8676 148.981 58.6483 148.992C58.21 149.021 57.7704 149.021 57.3321 148.992C57.114 148.975 56.8959 148.952 56.6777 148.922C56.4412 148.891 56.2065 148.846 55.9751 148.789L56.0606 148.807C55.9785 148.791 55.8977 148.768 55.8189 148.74L55.9267 148.774C55.3623 148.641 54.8243 148.414 54.3354 148.103C53.8376 147.781 53.4081 147.364 53.0713 146.877C52.461 145.939 52.1049 144.859 52.0377 143.743C51.8704 141.621 52.2831 139.613 52.8111 137.683C53.9265 133.827 55.6367 130.245 57.5366 126.796C61.3773 119.906 66.0693 113.557 71.1481 107.567C73.6949 104.574 76.3532 101.692 79.1082 98.8875C81.8632 96.0833 84.6852 93.3533 87.5889 90.7195C90.4926 88.0857 93.5079 85.5334 96.6236 83.1404C97.4006 82.5329 98.1851 81.9476 98.9733 81.3586L101.394 79.6658L103.814 77.9729L105.026 77.1283L106.264 76.3245C109.574 74.1792 112.99 72.2011 116.5 70.3975C118.262 69.5011 120.058 68.6639 121.906 67.9193C123.758 67.1523 125.664 66.5233 127.609 66.0375C129.614 65.5048 131.694 65.3157 133.762 65.4782C134.857 65.5946 135.921 65.9031 136.908 66.3894C137.915 66.9171 138.78 67.6796 139.429 68.612C139.792 69.1132 140.052 69.681 140.194 70.2827C140.343 70.9599 140.272 71.6665 139.994 72.3016C139.751 72.8301 139.435 73.3216 139.053 73.7611L138.112 74.8724C136.792 76.3541 135.38 77.7654 133.948 79.1175C131.082 81.8254 128.104 84.3443 125.419 87.0966C124.081 88.4635 122.817 89.9268 121.556 91.4048C120.296 92.8828 119.088 94.3905 117.905 95.9278C115.538 98.9974 113.307 102.165 111.213 105.429L104.874 115.272C104.838 115.327 104.797 115.379 104.751 115.427L104.729 115.45C104.671 115.507 104.608 115.558 104.539 115.601C104.627 115.548 104.707 115.48 104.773 115.401C104.939 115.213 105.032 114.971 105.034 114.72L104.725 115.461C104.92 115.264 105.029 114.997 105.026 114.72L104.859 115.283C102.431 119.08 100.078 122.91 97.9992 126.866C96.9656 128.844 96.0027 130.86 95.155 132.908C94.7237 133.93 94.3407 134.971 93.9727 136.012C93.6046 137.053 93.2551 138.139 92.9056 139.209C92.2103 141.347 91.5485 143.499 90.8979 145.658L89.9238 148.9L89.407 150.548C89.2528 151.05 89.1286 151.561 89.0352 152.078C88.6681 154.209 88.5434 156.375 88.6634 158.535C88.6917 159.545 88.8786 160.545 89.2174 161.498C89.4018 161.935 89.6431 162.346 89.935 162.721C90.2258 163.112 90.5587 163.471 90.9277 163.791C91.6229 164.42 92.4737 164.854 93.3927 165.047C94.3099 165.218 95.257 165.128 96.1254 164.788C97.9509 164.117 99.5905 162.65 100.996 161.054C103.855 157.642 106.606 154.038 109.313 150.441C114.726 143.217 120.039 135.875 125.769 128.815C131.498 121.754 137.666 114.957 144.879 109.237C148.492 106.344 152.431 103.882 156.617 101.899C160.848 99.8952 165.395 98.6333 170.057 98.1689C172.393 97.9519 174.743 97.9432 177.08 98.143C179.409 98.3661 181.715 98.7774 183.977 99.3728C186.228 99.971 188.432 100.73 190.573 101.644L192.164 102.347C192.696 102.577 193.205 102.855 193.726 103.088C194.774 103.585 195.774 104.162 196.786 104.714C197.797 105.266 198.771 105.896 199.76 106.496C200.749 107.096 201.686 107.733 202.634 108.382C204.53 109.675 206.393 111.034 208.174 112.516C209.974 113.991 211.658 115.6 213.212 117.331L213.792 117.994L214.331 118.691C214.702 119.143 215.048 119.632 215.394 120.11C215.74 120.587 216.045 121.106 216.372 121.591C216.539 121.84 216.669 122.11 216.818 122.369L217.034 122.762L217.141 122.958L217.197 123.058L217.223 123.106C217.268 123.214 217.242 123.077 217.004 122.814L217.249 123.155C217.883 124.415 218.382 125.739 218.736 127.103C219.097 128.477 219.281 129.891 219.283 131.312C219.329 132.704 219.248 134.097 219.041 135.475C218.838 136.857 218.522 138.219 218.097 139.55L218.063 139.639C217.796 140.428 217.439 141.41 217.045 142.287C216.651 143.165 216.205 144.047 215.721 144.88C214.757 146.564 213.646 148.159 212.401 149.648C209.931 152.593 207.079 155.198 203.92 157.394C200.776 159.576 197.412 161.426 193.882 162.913C190.406 164.428 186.851 165.691 183.301 166.884L183.129 166.929C183.157 166.925 183.185 166.919 183.211 166.91L183.129 166.94L182.962 166.995L182.628 167.106L181.962 167.329L180.627 167.77L177.965 168.644C176.192 169.225 174.429 169.818 172.678 170.429C170.927 171.04 169.176 171.689 167.499 172.37L164.949 173.437C164.138 173.8 163.346 174.203 162.577 174.645L162.324 174.76C162.392 174.739 162.458 174.712 162.521 174.678H162.551L162.487 174.715L162.361 174.789L162.108 174.941L161.643 175.234C161.338 175.431 161.04 175.636 160.747 175.849C160.17 176.265 159.622 176.72 159.108 177.212C158.12 178.117 157.356 179.238 156.877 180.486C156.458 181.664 156.458 182.95 156.877 184.128C157.353 185.334 158.166 186.379 159.219 187.139C160.353 187.979 161.606 188.646 162.937 189.118C164.32 189.617 165.747 189.989 167.198 190.229C170.205 190.751 173.24 191.094 176.288 191.255C182.425 191.537 188.574 191.331 194.677 190.64C200.805 189.981 206.947 189.084 212.996 187.94C219.047 186.831 225.011 185.292 230.842 183.335C236.644 181.384 242.206 178.784 247.421 175.586C252.605 172.413 257.28 168.481 261.289 163.921C265.264 159.359 268.352 154.099 270.394 148.411C270.571 147.922 271.013 147.578 271.532 147.525C277.956 146.888 284.31 145.384 290.601 143.628C293.746 142.747 296.888 141.802 300.03 140.85C303.171 139.898 306.291 138.92 309.384 137.887C315.56 135.779 321.653 133.419 327.349 130.356C330.199 128.839 332.946 127.137 335.57 125.259C338.19 123.417 340.617 121.316 342.812 118.987C344.988 116.697 346.798 114.087 348.177 111.249C349.518 108.425 350.29 105.367 350.449 102.247C350.603 99.0912 350.289 95.9297 349.52 92.8643C348.763 89.7653 347.69 86.7516 346.318 83.8702L345.794 82.7885L345.229 81.7143L344.114 79.562C343.348 78.1322 342.5 76.7505 341.701 75.3391C340.838 73.9648 339.983 72.5868 339.098 71.2273L337.723 69.2158C337.261 68.5454 336.815 67.8675 336.325 67.2229C332.514 61.9525 328.329 56.9611 323.802 52.2871C319.289 47.6049 314.426 43.2708 309.254 39.3219C306.689 37.329 303.993 35.4916 301.272 33.7469C299.916 32.8952 298.513 32.1198 297.07 31.4243C295.64 30.7237 294.163 30.1234 292.65 29.6277C291.906 29.3647 291.133 29.1721 290.37 28.9683C289.608 28.7646 288.831 28.6238 288.054 28.5275C286.514 28.286 284.95 28.2276 283.396 28.3534C281.859 28.4743 280.345 28.8021 278.897 29.3276C277.456 29.8765 276.096 30.6153 274.852 31.5243C272.312 33.3246 270.23 35.7843 268.245 38.3292C266.259 40.874 264.389 43.6078 262.255 46.1823C261.724 46.8269 261.158 47.4529 260.597 48.0827C260.036 48.7124 259.444 49.3199 258.79 49.8755C257.55 51.012 256.237 52.0675 254.86 53.0353C253.533 54.0096 252.224 54.9542 251.049 55.9988C249.88 56.9676 248.891 58.1352 248.131 59.4475C247.781 60.0804 247.517 60.7568 247.346 61.459C247.283 61.8294 247.212 62.1665 247.179 62.5221C247.154 62.881 247.154 63.2412 247.179 63.6001C247.282 65.0896 247.702 66.5403 248.41 67.8564C249.811 70.6124 251.96 73.0424 254.102 75.5317C258.444 80.546 262.296 85.9615 265.605 91.7048C268.934 97.4617 271.556 103.597 273.413 109.978L273.342 109.8V109.826L273.45 110.282C273.452 110.132 273.418 109.983 273.35 109.849C273.343 109.842 273.333 109.841 273.325 109.845C273.316 109.849 273.312 109.858 273.312 109.867L273.435 110.082C273.435 110.082 273.457 110.16 273.465 110.189L273.517 110.397L273.625 110.812L273.837 111.638L274.049 112.464L274.156 112.879L274.208 113.086L274.238 113.197L274.279 113.408V113.32C274.962 116.269 275.459 119.258 275.766 122.269C276.07 125.288 276.167 128.324 276.056 131.356C275.859 137.442 274.718 143.461 272.673 149.2C272.543 149.556 272.219 149.807 271.84 149.844C266.822 150.391 261.751 150.239 256.775 149.392C254.278 148.949 251.829 148.268 249.462 147.359C248.265 146.94 247.123 146.396 245.967 145.877C244.851 145.31 243.706 144.766 242.621 144.136C233.831 139.228 226.459 132.482 217.71 128.033C215.565 126.908 213.326 125.971 211.018 125.233C208.688 124.508 206.321 123.906 203.928 123.429C201.533 122.977 199.113 122.666 196.681 122.499C194.253 122.363 191.819 122.39 189.394 122.58C186.978 122.81 184.582 123.225 182.23 123.821C179.89 124.452 177.609 125.281 175.411 126.3C171.033 128.421 167.039 131.254 163.595 134.682C160.135 138.129 157.103 141.977 154.564 146.144C153.267 148.218 152.129 150.367 150.884 152.541C149.638 154.715 148.303 156.801 146.902 158.861C141.244 167.085 134.299 174.352 126.33 180.383C122.356 183.397 118.136 186.076 113.715 188.392C109.303 190.726 104.694 192.67 99.94 194.2L98.1554 194.767L96.3522 195.27L95.4524 195.522L94.5415 195.745L92.7197 196.185C90.277 196.704 87.8231 197.178 85.3395 197.46C80.3741 198.089 75.354 198.169 70.371 197.697C70.0271 197.665 69.7741 197.362 69.8059 197.019C69.8377 196.676 70.1423 196.424 70.4863 196.456L70.4454 196.463Z" fill="#233940"/>
<path fill-rule="evenodd" clip-rule="evenodd" d="M94.69 105.163C89.4013 108.566 84.5285 112.571 80.1699 117.097L78.5553 118.806C78.0071 119.366 77.5187 119.979 76.9966 120.562C75.9488 121.729 74.9868 122.966 74.0136 124.188C72.0933 126.659 70.3059 129.231 68.6589 131.891C62.0664 142.495 57.4351 154.452 56.0853 166.772L55.8877 169.082C55.8541 169.851 55.8056 170.624 55.787 171.392C55.7572 172.93 55.7609 174.472 55.8802 175.994L55.966 177.138L56.1039 178.275C56.1785 179.018 56.3351 179.761 56.4545 180.53C56.5141 180.901 56.6148 181.272 56.6931 181.644L56.8199 182.197L56.8833 182.472L56.9504 182.691C57.1196 183.258 57.4183 183.778 57.8229 184.21C58.6715 185.073 59.8683 185.504 61.0745 185.38C62.2879 185.292 63.3837 184.625 64.0165 183.59C64.3429 182.999 64.572 182.359 64.6952 181.696C64.904 180.923 65.1054 180.151 65.3365 179.386C65.7766 177.848 66.2576 176.325 66.7647 174.806C67.7745 171.769 68.9407 168.786 70.2586 165.869C71.5653 162.942 73.0509 160.098 74.7071 157.352C76.3695 154.604 78.2393 151.985 80.3004 149.519C82.3961 147.079 84.7073 144.832 87.2062 142.804C87.4737 142.61 87.8457 142.656 88.0584 142.908C88.2711 143.16 88.2523 143.532 88.0154 143.762C85.6575 145.813 83.4887 148.071 81.5346 150.507C79.6127 152.967 77.8682 155.56 76.3143 158.266C74.7634 160.982 73.3811 163.791 72.1752 166.675C70.955 169.558 69.8846 172.501 68.9684 175.493C68.5061 176.979 68.0698 178.49 67.6783 180.006C67.4694 180.749 67.3054 181.521 67.104 182.283C67.0071 182.654 66.9325 183.025 66.7833 183.505C66.6381 183.97 66.4405 184.417 66.1942 184.838C65.6947 185.701 64.9922 186.43 64.147 186.963C62.4476 188.056 60.334 188.3 58.4285 187.623C56.5229 186.945 55.0422 185.423 54.4222 183.505L54.3104 183.155L54.2358 182.855L54.0866 182.253C53.9934 181.852 53.8778 181.454 53.807 181.049C53.6615 180.243 53.4826 179.438 53.3968 178.624L53.2402 177.406L53.1395 176.188C52.8986 172.947 52.9698 169.691 53.3521 166.464C53.7008 163.26 54.2753 160.085 55.0711 156.962C55.8713 153.846 56.8537 150.779 58.0131 147.777C59.168 144.787 60.4773 141.859 61.9358 139.004L62.4803 137.93L63.0582 136.876C63.4311 136.174 63.804 135.464 64.2216 134.773C65.0494 133.399 65.8437 132.01 66.746 130.688C68.4925 128.001 70.3807 125.409 72.4027 122.921C73.4319 121.692 74.4424 120.451 75.5424 119.281C76.0868 118.694 76.6014 118.081 77.1756 117.52L78.8648 115.812C79.4167 115.229 80.0282 114.698 80.6099 114.159C81.1916 113.621 81.7733 113.045 82.3885 112.547C83.6191 111.522 84.816 110.46 86.1174 109.509C88.6482 107.551 91.2929 105.744 94.0374 104.097C94.3299 103.912 94.7172 103.999 94.9025 104.29C95.0879 104.582 95.0011 104.967 94.7086 105.152L94.69 105.163Z" fill="#233940"/>
<path opacity="0.737514" fill-rule="evenodd" clip-rule="evenodd" d="M320 112C324.971 112 329 107.971 329 103C329 98.0294 324.971 94 320 94C315.029 94 311 98.0294 311 103C311 107.971 315.029 112 320 112Z" fill="#F8F8F8"/>
<defs>
<linearGradient id="paint0_linear" x1="323.06" y1="181.434" x2="323.06" y2="19.1605" gradientUnits="userSpaceOnUse">
<stop stop-color="#438EFF"/>
<stop offset="1" stop-color="#6ACCFF"/>
</linearGradient>
<linearGradient id="paint1_linear" x1="188" y1="27" x2="188" y2="149" gradientUnits="userSpaceOnUse">
<stop stop-color="#FF6513"/>
<stop offset="1" stop-color="#F43FF9"/>
</linearGradient>
</defs>
</svg>
